<svg width="179" height="52" viewBox="0 0 179 52" fill="none" xmlns="http://www.w3.org/2000/svg">
<path d="M178.124 46.7875C178.124 49.6673 175.833 52 172.998 52H5.25645C2.42352 52 0.124023 49.6673 0.124023 46.7875V5.21933C0.124023 2.34087 2.42352 0 5.25645 0H172.997C175.833 0 178.123 2.34087 178.123 5.21933L178.124 46.7875Z" fill="#353C4B" fill-opacity="0.4"/>
<path d="M39.2945 25.7081C39.2558 21.3539 42.8131 19.2356 42.9758 19.137C40.9611 16.1608 37.8385 15.7541 36.7411 15.7217C34.1185 15.442 31.5745 17.3118 30.2385 17.3118C28.8758 17.3118 26.8185 15.7487 24.6011 15.7947C21.7478 15.8392 19.0785 17.5131 17.6145 20.1124C14.5931 25.4123 16.8465 33.2007 19.7411 37.4846C21.1891 39.5827 22.8811 41.9253 25.0958 41.8429C27.2625 41.7524 28.0718 40.4433 30.6865 40.4433C33.2771 40.4433 34.0371 41.8429 36.2958 41.7902C38.6211 41.7524 40.0851 39.6827 41.4825 37.5657C43.1558 35.161 43.8278 32.7927 43.8545 32.6711C43.7998 32.6522 39.3385 30.927 39.2945 25.7081Z" fill="white"/>
<path d="M35.0278 12.9036C36.1931 11.4269 36.9905 9.41802 36.7691 7.37939C35.0825 7.45505 32.9731 8.5615 31.7585 10.0057C30.6838 11.2783 29.7238 13.3642 29.9718 15.3259C31.8665 15.4691 33.8118 14.3572 35.0278 12.9036Z" fill="white"/>
<path d="M70.6509 41.5416H67.6229L65.9642 36.2606H60.1989L58.6189 41.5416H55.6709L61.3829 23.5627H64.9109L70.6509 41.5416ZM65.4642 34.045L63.9642 29.3503C63.8056 28.8707 63.5082 27.7413 63.0696 25.9634H63.0162C62.8416 26.7281 62.5602 27.8575 62.1736 29.3503L60.7002 34.045H65.4642Z" fill="white"/>
<path d="M85.3399 34.9003C85.3399 37.1051 84.7519 38.8478 83.5759 40.1272C82.5226 41.2661 81.2146 41.8348 79.6532 41.8348C77.9679 41.8348 76.7572 41.2215 76.0199 39.9948H75.9666V46.824H73.1239V32.8454C73.1239 31.4593 73.0879 30.0367 73.0186 28.5777H75.5186L75.6772 30.6325H75.7306C76.6786 29.0843 78.1172 28.3115 80.0479 28.3115C81.5572 28.3115 82.8172 28.9154 83.8252 30.1245C84.8359 31.335 85.3399 32.9265 85.3399 34.9003ZM82.4439 35.0056C82.4439 33.7438 82.1639 32.7036 81.6012 31.8849C80.9866 31.031 80.1612 30.6041 79.1266 30.6041C78.4252 30.6041 77.7879 30.8419 77.2186 31.3107C76.6479 31.7835 76.2746 32.4009 76.0999 33.1656C76.0119 33.5223 75.9679 33.8141 75.9679 34.0437V36.2053C75.9679 37.1483 76.2532 37.944 76.8239 38.5938C77.3946 39.2437 78.1359 39.5679 79.0479 39.5679C80.1186 39.5679 80.9519 39.1491 81.5479 38.3142C82.1452 37.4779 82.4439 36.3755 82.4439 35.0056Z" fill="white"/>
<path d="M100.056 34.9003C100.056 37.1051 99.4683 38.8478 98.291 40.1272C97.239 41.2661 95.931 41.8348 94.3697 41.8348C92.6843 41.8348 91.4737 41.2215 90.7377 39.9948H90.6843V46.824H87.8417V32.8454C87.8417 31.4593 87.8057 30.0367 87.7363 28.5777H90.2363L90.395 30.6325H90.4483C91.395 29.0843 92.8337 28.3115 94.7657 28.3115C96.2737 28.3115 97.5337 28.9154 98.5443 30.1245C99.551 31.335 100.056 32.9265 100.056 34.9003ZM97.1603 35.0056C97.1603 33.7438 96.879 32.7036 96.3163 31.8849C95.7017 31.031 94.879 30.6041 93.843 30.6041C93.1403 30.6041 92.5043 30.8419 91.9337 31.3107C91.363 31.7835 90.991 32.4009 90.8163 33.1656C90.7297 33.5223 90.6843 33.8141 90.6843 34.0437V36.2053C90.6843 37.1483 90.9697 37.944 91.5377 38.5938C92.1083 39.2423 92.8497 39.5679 93.7643 39.5679C94.835 39.5679 95.6683 39.1491 96.2643 38.3142C96.8617 37.4779 97.1603 36.3755 97.1603 35.0056Z" fill="white"/>
<path d="M116.51 36.4999C116.51 38.0292 115.986 39.2734 114.934 40.234C113.778 41.2837 112.169 41.8079 110.101 41.8079C108.191 41.8079 106.661 41.435 105.502 40.6879L106.161 38.2872C107.409 39.0519 108.778 39.4356 110.27 39.4356C111.341 39.4356 112.174 39.1897 112.773 38.7006C113.369 38.2116 113.666 37.555 113.666 36.7363C113.666 36.0068 113.421 35.3921 112.929 34.8936C112.439 34.395 111.622 33.9317 110.481 33.5034C107.374 32.3294 105.822 30.6096 105.822 28.3481C105.822 26.8701 106.366 25.6583 107.455 24.7153C108.541 23.7709 109.989 23.2994 111.799 23.2994C113.414 23.2994 114.755 23.5845 115.826 24.1533L115.115 26.5013C114.115 25.9501 112.985 25.6745 111.719 25.6745C110.719 25.6745 109.938 25.9244 109.378 26.4216C108.905 26.866 108.667 27.4078 108.667 28.0495C108.667 28.7601 108.938 29.3478 109.482 29.8098C109.955 30.2367 110.815 30.6988 112.063 31.1973C113.59 31.8201 114.711 32.5483 115.433 33.3832C116.151 34.2154 116.51 35.257 116.51 36.4999Z" fill="white"/>
<path d="M125.908 30.7393H122.775V37.0335C122.775 38.6344 123.327 39.4342 124.434 39.4342C124.942 39.4342 125.363 39.3896 125.696 39.3005L125.775 41.4877C125.215 41.6998 124.478 41.8065 123.564 41.8065C122.442 41.8065 121.564 41.4593 120.931 40.7663C120.3 40.0719 119.983 38.9073 119.983 37.2713V30.7366H118.116V28.575H119.983V26.2014L122.775 25.3475V28.575H125.908V30.7393Z" fill="white"/>
<path d="M140.046 34.9529C140.046 36.9456 139.483 38.5817 138.36 39.861C137.183 41.1783 135.62 41.8348 133.672 41.8348C131.795 41.8348 130.3 41.2039 129.186 39.9421C128.071 38.6803 127.514 37.0875 127.514 35.1677C127.514 33.1588 128.087 31.5133 129.238 30.234C130.386 28.9532 131.935 28.3129 133.883 28.3129C135.76 28.3129 137.271 28.9438 138.411 30.2069C139.502 31.4323 140.046 33.0143 140.046 34.9529ZM137.096 35.0462C137.096 33.8505 136.844 32.8251 136.334 31.97C135.738 30.9351 134.886 30.419 133.782 30.419C132.639 30.419 131.771 30.9365 131.175 31.97C130.664 32.8265 130.412 33.8681 130.412 35.1002C130.412 36.2958 130.664 37.3212 131.175 38.175C131.79 39.2099 132.648 39.7259 133.756 39.7259C134.842 39.7259 135.694 39.1991 136.308 38.148C136.832 37.2766 137.096 36.2404 137.096 35.0462Z" fill="white"/>
<path d="M149.286 31.1108C149.004 31.0581 148.704 31.031 148.39 31.031C147.39 31.031 146.616 31.4134 146.072 32.1794C145.599 32.8549 145.362 33.7087 145.362 34.7395V41.5417H142.52L142.547 32.6603C142.547 31.1661 142.511 29.8057 142.44 28.579H144.916L145.02 31.0594H145.099C145.399 30.2069 145.872 29.5207 146.52 29.0059C147.154 28.5425 147.838 28.3115 148.575 28.3115C148.838 28.3115 149.075 28.3304 149.286 28.3642V31.1108Z" fill="white"/>
<path d="M161.999 34.4462C161.999 34.9623 161.965 35.3973 161.895 35.7526H153.367C153.4 37.0334 153.812 38.0128 154.604 38.6883C155.323 39.2922 156.252 39.5948 157.393 39.5948C158.656 39.5948 159.808 39.3908 160.844 38.9815L161.289 40.9809C160.079 41.5159 158.649 41.782 157 41.782C155.016 41.782 153.459 41.1903 152.325 40.0082C151.195 38.8261 150.628 37.2387 150.628 35.2474C150.628 33.2925 151.155 31.6646 152.209 30.3663C153.313 28.9802 154.805 28.2871 156.683 28.2871C158.527 28.2871 159.923 28.9802 160.871 30.3663C161.621 31.4673 161.999 32.8291 161.999 34.4462ZM159.288 33.6991C159.307 32.8453 159.121 32.1077 158.736 31.4849C158.244 30.6837 157.488 30.2839 156.471 30.2839C155.541 30.2839 154.785 30.6743 154.208 31.4579C153.735 32.0807 153.453 32.8278 153.367 33.6978H159.288V33.6991Z" fill="white"/>
<path d="M64.5237 12.5023C64.5237 14.0924 64.0531 15.2894 63.1131 16.0932C62.2424 16.8349 61.0051 17.2064 59.4024 17.2064C58.6077 17.2064 57.9277 17.1713 57.3584 17.101V8.41286C58.1011 8.29127 58.9011 8.22913 59.7651 8.22913C61.2917 8.22913 62.4424 8.56552 63.2184 9.23831C64.0877 9.99891 64.5237 11.0864 64.5237 12.5023ZM63.0504 12.5415C63.0504 11.5107 62.7811 10.7203 62.2424 10.1691C61.7037 9.61928 60.9171 9.34368 59.8811 9.34368C59.4411 9.34368 59.0664 9.37341 58.7557 9.43555V16.0405C58.9277 16.0675 59.2424 16.0797 59.6997 16.0797C60.7691 16.0797 61.5944 15.7784 62.1757 15.1759C62.7571 14.5733 63.0504 13.6952 63.0504 12.5415Z" fill="white"/>
<path d="M72.3357 13.8911C72.3357 14.8706 72.0597 15.6731 71.5077 16.3026C70.929 16.9498 70.1624 17.2727 69.205 17.2727C68.2824 17.2727 67.5477 16.9633 66.9997 16.3418C66.453 15.7217 66.1797 14.9395 66.1797 13.9965C66.1797 13.0103 66.461 12.2011 67.0264 11.5729C67.5917 10.9447 68.3517 10.6299 69.309 10.6299C70.2317 10.6299 70.973 10.9393 71.5344 11.5594C72.0677 12.1619 72.3357 12.9401 72.3357 13.8911ZM70.8864 13.9371C70.8864 13.3494 70.761 12.8455 70.5117 12.4253C70.2184 11.9174 69.801 11.6634 69.2584 11.6634C68.697 11.6634 68.2704 11.9174 67.977 12.4253C67.7264 12.8455 67.6024 13.3575 67.6024 13.9628C67.6024 14.5504 67.7277 15.0543 67.977 15.4745C68.2797 15.9825 68.701 16.2364 69.245 16.2364C69.7784 16.2364 70.197 15.9784 70.4984 15.461C70.757 15.0327 70.8864 14.5248 70.8864 13.9371Z" fill="white"/>
<path d="M82.8098 10.7595L80.8431 17.128H79.5631L78.7485 14.3626C78.5418 13.6722 78.3738 12.9859 78.2431 12.305H78.2178C78.0965 13.0049 77.9285 13.6898 77.7125 14.3626L76.8471 17.128H75.5525L73.7031 10.7595H75.1391L75.8498 13.7871C76.0218 14.5031 76.1631 15.1853 76.2765 15.8311H76.3018C76.4058 15.2988 76.5778 14.6206 76.8205 13.8006L77.7125 10.7609H78.8511L79.7058 13.7357C79.9125 14.4612 80.0805 15.1597 80.2098 15.8325H80.2485C80.3431 15.1772 80.4858 14.4788 80.6751 13.7357L81.4378 10.7609H82.8098V10.7595Z" fill="white"/>
<path d="M90.0542 17.1281H88.6569V13.4805C88.6569 12.3565 88.2356 11.7945 87.3902 11.7945C86.9756 11.7945 86.6409 11.9485 86.3809 12.2578C86.1236 12.5672 85.9929 12.932 85.9929 13.3494V17.1268H84.5956V12.5794C84.5956 12.0201 84.5783 11.4135 84.5449 10.7569H85.7729L85.8383 11.7526H85.8769C86.0396 11.4432 86.2823 11.1879 86.6009 10.9839C86.9796 10.7461 87.4036 10.6259 87.8676 10.6259C88.4542 10.6259 88.9422 10.8177 89.3302 11.2027C89.8129 11.6742 90.0542 12.3781 90.0542 13.313V17.1281Z" fill="white"/>
<path d="M93.9077 17.1281H92.5117V7.8374H93.9077V17.1281Z" fill="white"/>
<path d="M102.135 13.8911C102.135 14.8706 101.859 15.6731 101.307 16.3026C100.728 16.9498 99.9599 17.2727 99.0039 17.2727C98.0799 17.2727 97.3452 16.9633 96.7985 16.3418C96.2518 15.7217 95.9785 14.9395 95.9785 13.9965C95.9785 13.0103 96.2599 12.2011 96.8252 11.5729C97.3905 10.9447 98.1505 10.6299 99.1065 10.6299C100.031 10.6299 100.771 10.9393 101.333 11.5594C101.867 12.1619 102.135 12.9401 102.135 13.8911ZM100.684 13.9371C100.684 13.3494 100.559 12.8455 100.309 12.4253C100.017 11.9174 99.5985 11.6634 99.0572 11.6634C98.4945 11.6634 98.0678 11.9174 97.7758 12.4253C97.5252 12.8455 97.4012 13.3575 97.4012 13.9628C97.4012 14.5504 97.5265 15.0543 97.7758 15.4745C98.0785 15.9825 98.4999 16.2364 99.0439 16.2364C99.5772 16.2364 99.9945 15.9784 100.296 15.461C100.556 15.0327 100.684 14.5248 100.684 13.9371Z" fill="white"/>
<path d="M108.897 17.1281H107.643L107.539 16.3945H107.5C107.071 16.9795 106.459 17.2727 105.664 17.2727C105.071 17.2727 104.591 17.0795 104.229 16.6958C103.901 16.3472 103.737 15.9136 103.737 15.3988C103.737 14.6207 104.057 14.0276 104.701 13.6169C105.344 13.2062 106.248 13.0049 107.412 13.0144V12.8955C107.412 12.0565 106.977 11.6377 106.107 11.6377C105.487 11.6377 104.94 11.7958 104.468 12.1092L104.184 11.1797C104.768 10.8136 105.489 10.6299 106.34 10.6299C107.983 10.6299 108.807 11.508 108.807 13.2643V15.6096C108.807 16.2459 108.837 16.7525 108.897 17.1281ZM107.447 14.9395V13.9573C105.905 13.9303 105.135 14.3586 105.135 15.2408C105.135 15.5731 105.223 15.8217 105.403 15.9879C105.583 16.154 105.812 16.2364 106.085 16.2364C106.392 16.2364 106.679 16.1378 106.94 15.9419C107.203 15.7447 107.364 15.4948 107.424 15.1881C107.439 15.1192 107.447 15.0354 107.447 14.9395Z" fill="white"/>
<path d="M116.837 17.1281H115.597L115.532 16.1054H115.493C115.097 16.8836 114.422 17.2726 113.474 17.2726C112.717 17.2726 112.086 16.9714 111.586 16.3688C111.086 15.7663 110.837 14.9841 110.837 14.0235C110.837 12.9927 111.108 12.1578 111.652 11.5202C112.178 10.9257 112.824 10.6285 113.592 10.6285C114.436 10.6285 115.026 10.9163 115.362 11.4932H115.389V7.8374H116.788V15.4124C116.788 16.0324 116.804 16.6039 116.837 17.1281ZM115.389 14.4423V13.3805C115.389 13.1967 115.376 13.0481 115.35 12.9347C115.272 12.5942 115.102 12.3078 114.845 12.0768C114.585 11.8458 114.272 11.7296 113.91 11.7296C113.389 11.7296 112.981 11.939 112.681 12.3591C112.384 12.7793 112.233 13.3156 112.233 13.9709C112.233 14.6004 112.376 15.1111 112.662 15.5042C112.965 15.923 113.373 16.1324 113.884 16.1324C114.342 16.1324 114.709 15.9581 114.988 15.6082C115.257 15.2854 115.389 14.8963 115.389 14.4423Z" fill="white"/>
<path d="M128.788 13.8911C128.788 14.8706 128.512 15.6731 127.96 16.3026C127.381 16.9498 126.616 17.2727 125.657 17.2727C124.736 17.2727 124.001 16.9633 123.452 16.3418C122.905 15.7217 122.632 14.9395 122.632 13.9965C122.632 13.0103 122.913 12.2011 123.479 11.5729C124.044 10.9447 124.804 10.6299 125.762 10.6299C126.684 10.6299 127.427 10.9393 127.987 11.5594C128.52 12.1619 128.788 12.9401 128.788 13.8911ZM127.34 13.9371C127.34 13.3494 127.214 12.8455 126.965 12.4253C126.67 11.9174 126.255 11.6634 125.711 11.6634C125.151 11.6634 124.724 11.9174 124.429 12.4253C124.179 12.8455 124.055 13.3575 124.055 13.9628C124.055 14.5504 124.18 15.0543 124.429 15.4745C124.732 15.9825 125.153 16.2364 125.697 16.2364C126.231 16.2364 126.651 15.9784 126.952 15.461C127.209 15.0327 127.34 14.5248 127.34 13.9371Z" fill="white"/>
<path d="M136.301 17.1281H134.905V13.4805C134.905 12.3565 134.484 11.7945 133.637 11.7945C133.222 11.7945 132.888 11.9485 132.629 12.2578C132.37 12.5672 132.241 12.932 132.241 13.3494V17.1268H130.842V12.5794C130.842 12.0201 130.826 11.4135 130.793 10.7569H132.02L132.085 11.7526H132.124C132.288 11.4432 132.53 11.1879 132.848 10.9839C133.228 10.7461 133.65 10.6259 134.116 10.6259C134.701 10.6259 135.189 10.8177 135.577 11.2027C136.061 11.6742 136.301 12.3781 136.301 13.313V17.1281Z" fill="white"/>
<path d="M145.705 11.8202H144.166V14.9139C144.166 15.7002 144.44 16.0933 144.981 16.0933C145.232 16.0933 145.44 16.0717 145.604 16.0271L145.64 17.1011C145.364 17.2065 145.001 17.2592 144.554 17.2592C144.002 17.2592 143.573 17.089 143.262 16.7485C142.95 16.4081 142.796 15.8353 142.796 15.0314V11.8202H141.877V10.7596H142.796V9.59239L144.165 9.17358V10.7583H145.704V11.8202H145.705Z" fill="white"/>
<path d="M153.102 17.1281H151.704V13.5075C151.704 12.3659 151.282 11.7944 150.438 11.7944C149.79 11.7944 149.348 12.1254 149.105 12.7874C149.064 12.9265 149.04 13.0968 149.04 13.2967V17.1267H147.644V7.8374H149.04V11.6755H149.066C149.506 10.9771 150.137 10.6285 150.954 10.6285C151.533 10.6285 152.012 10.8204 152.392 11.2054C152.865 11.685 153.102 12.3983 153.102 13.3413V17.1281Z" fill="white"/>
<path d="M160.733 13.6425C160.733 13.8965 160.714 14.11 160.681 14.2842H156.49C156.509 14.9138 156.709 15.3934 157.097 15.7257C157.451 16.0229 157.909 16.1716 158.469 16.1716C159.089 16.1716 159.654 16.0716 160.163 15.8703L160.382 16.8538C159.786 17.1159 159.085 17.2469 158.273 17.2469C157.299 17.2469 156.533 16.9565 155.978 16.3756C155.421 15.7946 155.145 15.0151 155.145 14.037C155.145 13.0765 155.402 12.2767 155.921 11.639C156.462 10.9581 157.194 10.6177 158.118 10.6177C159.022 10.6177 159.709 10.9581 160.173 11.639C160.547 12.1794 160.733 12.8481 160.733 13.6425ZM159.399 13.2764C159.41 12.8562 159.318 12.4942 159.129 12.1889C158.886 11.7957 158.517 11.5985 158.017 11.5985C157.561 11.5985 157.189 11.7903 156.905 12.1754C156.673 12.482 156.535 12.8481 156.49 13.2764H159.399Z" fill="white"/>
</svg>
