<svg width="24" height="24" viewBox="0 0 24 24" fill="none" xmlns="http://www.w3.org/2000/svg">
<path d="M10.8004 2.40002C9.52735 2.40002 8.30645 2.90574 7.40628 3.80591C6.5061 4.70609 6.00039 5.92699 6.00039 7.20002C6.00039 8.47306 6.5061 9.69396 7.40628 10.5941C8.30645 11.4943 9.52735 12 10.8004 12C12.0734 12 13.2943 11.4943 14.1945 10.5941C15.0947 9.69396 15.6004 8.47306 15.6004 7.20002C15.6004 5.92699 15.0947 4.70609 14.1945 3.80591C13.2943 2.90574 12.0734 2.40002 10.8004 2.40002ZM4.81119 13.2C4.49511 13.1986 4.18186 13.2596 3.88943 13.3796C3.597 13.4996 3.33115 13.6761 3.10715 13.8991C2.88314 14.1221 2.70539 14.3872 2.58411 14.6791C2.46282 14.971 2.40039 15.2839 2.40039 15.6C2.40039 17.6292 3.39999 19.1592 4.96239 20.1564C6.50079 21.1368 8.57439 21.6 10.8004 21.6C11.294 21.6 11.778 21.5772 12.2524 21.5316C11.3106 20.3608 10.7981 18.9027 10.8004 17.4C10.8004 15.804 11.3668 14.34 12.3088 13.2H4.81119ZM22.8004 17.4C22.8004 18.8322 22.2315 20.2057 21.2188 21.2184C20.2061 22.2311 18.8326 22.8 17.4004 22.8C15.9682 22.8 14.5947 22.2311 13.582 21.2184C12.5693 20.2057 12.0004 18.8322 12.0004 17.4C12.0004 15.9679 12.5693 14.5943 13.582 13.5816C14.5947 12.569 15.9682 12 17.4004 12C18.8326 12 20.2061 12.569 21.2188 13.5816C22.2315 14.5943 22.8004 15.9679 22.8004 17.4ZM17.9716 14.232C17.9369 14.1072 17.8623 13.9971 17.7591 13.9187C17.656 13.8402 17.53 13.7978 17.4004 13.7978C17.2708 13.7978 17.1448 13.8402 17.0416 13.9187C16.9385 13.9971 16.8639 14.1072 16.8292 14.232L16.2568 16.0704H14.4004C13.8196 16.0704 13.5772 16.8468 14.0476 17.2032L15.5476 18.3396L14.9752 20.178C14.7952 20.754 15.4288 21.234 15.8992 20.8776L17.3992 19.7412L18.8992 20.8776C19.3696 21.234 20.0032 20.754 19.8232 20.178L19.2508 18.3396L20.7508 17.2032C21.2212 16.8468 20.9788 16.0704 20.398 16.0704H18.544L17.9716 14.232Z" fill="#353C4B"/>
</svg>
