<svg width="20" height="20" viewBox="0 0 20 20" fill="none" xmlns="http://www.w3.org/2000/svg">
<path d="M16.547 7.44004L14.7603 18.1067C14.7323 18.2597 14.6517 18.3982 14.5324 18.498C14.413 18.5978 14.2626 18.6528 14.107 18.6534H5.89366C5.73808 18.6528 5.58761 18.5978 5.46829 18.498C5.34897 18.3982 5.26833 18.2597 5.24033 18.1067L3.45366 7.44004C3.43827 7.34511 3.4436 7.24797 3.46929 7.15529C3.49498 7.06261 3.54041 6.97659 3.60248 6.90312C3.66454 6.82966 3.74177 6.77049 3.82885 6.72968C3.91594 6.68887 4.01082 6.66739 4.10699 6.66671H15.8803C15.9776 6.66545 16.074 6.68551 16.1627 6.72547C16.2514 6.76543 16.3303 6.82433 16.3939 6.89803C16.4574 6.97172 16.504 7.05843 16.5305 7.15207C16.5569 7.2457 16.5626 7.344 16.547 7.44004ZM17.3337 4.66671C17.3337 4.84352 17.2634 5.01309 17.1384 5.13811C17.0134 5.26314 16.8438 5.33337 16.667 5.33337H3.33366C3.15685 5.33337 2.98728 5.26314 2.86225 5.13811C2.73723 5.01309 2.66699 4.84352 2.66699 4.66671C2.66699 4.4899 2.73723 4.32033 2.86225 4.1953C2.98728 4.07028 3.15685 4.00004 3.33366 4.00004H6.66699V2.00004C6.66699 1.82323 6.73723 1.65366 6.86225 1.52864C6.98728 1.40361 7.15685 1.33337 7.33366 1.33337H12.667C12.8438 1.33337 13.0134 1.40361 13.1384 1.52864C13.2634 1.65366 13.3337 1.82323 13.3337 2.00004V4.00004H16.667C16.8438 4.00004 17.0134 4.07028 17.1384 4.1953C17.2634 4.32033 17.3337 4.4899 17.3337 4.66671ZM12.0003 4.00004V2.66671H8.00033V4.00004H12.0003Z" fill="#353C4B"/>
</svg>
