<svg width="24" height="24" viewBox="0 0 24 24" fill="none" xmlns="http://www.w3.org/2000/svg">
<path d="M11 14H13C13.2833 14 13.521 13.904 13.713 13.712C13.905 13.52 14.0007 13.2827 14 13C13.9993 12.7173 13.9033 12.48 13.712 12.288C13.5207 12.096 13.2833 12 13 12H11C10.7167 12 10.4793 12.096 10.288 12.288C10.0967 12.48 10.0007 12.7173 10 13C9.99933 13.2827 10.0953 13.5203 10.288 13.713C10.4807 13.9057 10.718 14.0013 11 14ZM11 11H17C17.2833 11 17.521 10.904 17.713 10.712C17.905 10.52 18.0007 10.2827 18 10C17.9993 9.71733 17.9033 9.48 17.712 9.288C17.5207 9.096 17.2833 9 17 9H11C10.7167 9 10.4793 9.096 10.288 9.288C10.0967 9.48 10.0007 9.71733 10 10C9.99933 10.2827 10.0953 10.5203 10.288 10.713C10.4807 10.9057 10.718 11.0013 11 11ZM11 8H17C17.2833 8 17.521 7.904 17.713 7.712C17.905 7.52 18.0007 7.28267 18 7C17.9993 6.71733 17.9033 6.48 17.712 6.288C17.5207 6.096 17.2833 6 17 6H11C10.7167 6 10.4793 6.096 10.288 6.288C10.0967 6.48 10.0007 6.71733 10 7C9.99933 7.28267 10.0953 7.52033 10.288 7.713C10.4807 7.90567 10.718 8.00133 11 8ZM8 18C7.45 18 6.97933 17.8043 6.588 17.413C6.19667 17.0217 6.00067 16.5507 6 16V4C6 3.45 6.196 2.97933 6.588 2.588C6.98 2.19667 7.45067 2.00067 8 2H20C20.55 2 21.021 2.196 21.413 2.588C21.805 2.98 22.0007 3.45067 22 4V16C22 16.55 21.8043 17.021 21.413 17.413C21.0217 17.805 20.5507 18.0007 20 18H8ZM4 22C3.45 22 2.97933 21.8043 2.588 21.413C2.19667 21.0217 2.00067 20.5507 2 20V7C2 6.71667 2.096 6.47933 2.288 6.288C2.48 6.09667 2.71733 6.00067 3 6C3.28267 5.99933 3.52033 6.09533 3.713 6.288C3.90567 6.48067 4.00133 6.718 4 7V20H17C17.2833 20 17.521 20.096 17.713 20.288C17.905 20.48 18.0007 20.7173 18 21C17.9993 21.2827 17.9033 21.5203 17.712 21.713C17.5207 21.9057 17.2833 22.0013 17 22H4Z" fill="#353C4B"/>
</svg>
