<svg width="20" height="20" viewBox="0 0 20 20" fill="none" xmlns="http://www.w3.org/2000/svg">
<path d="M18.1835 12.85L16.1001 16.4584C15.6918 17.175 14.9335 17.55 14.1668 17.5H12.5001V19.1667L10.4168 15.4167L12.5001 11.6667V13.3334H14.8501L13.0001 10.125L16.6085 8.04172L18.1085 10.6417C18.5418 11.2834 18.6001 12.1417 18.1835 12.85ZM7.67513 2.55005H11.8418C12.6585 2.55005 13.3668 3.02505 13.7085 3.70838L14.5418 5.15838L15.9835 4.32505L13.7835 8.00005L9.4918 8.07505L10.9335 7.24171L9.75846 5.20005L7.9168 8.40838L4.30013 6.32505L5.80013 3.72505C6.1418 3.03338 6.85013 2.55005 7.67513 2.55005ZM4.20846 16.4667L2.12513 12.8584C1.7168 12.15 1.77513 11.3 2.20013 10.6584L3.03346 9.21672L1.5918 8.38338L5.87513 8.45005L8.08346 12.1334L6.6418 11.3L5.4668 13.3334H9.1668V17.5H6.1668C5.77638 17.5283 5.38588 17.4464 5.03968 17.2638C4.69349 17.0811 4.4055 16.8049 4.20846 16.4667Z" fill="#353C4B"/>
</svg>
