<svg width="24" height="24" viewBox="0 0 24 24" fill="none" xmlns="http://www.w3.org/2000/svg">
<path fill-rule="evenodd" clip-rule="evenodd" d="M17.9261 0H6.57498C3.4537 0 0.899414 2.6991 0.899414 6V18C0.899414 21.2997 3.4537 24 6.57498 24H17.9261C21.0474 24 23.6017 21.2997 23.6017 18V6C23.6017 2.6991 21.0474 0 17.9261 0ZM12.2502 16.9999C9.63778 16.9999 7.52051 14.7607 7.52051 12.0001C7.52051 9.23834 9.63778 7.00004 12.2502 7.00004C14.8616 7.00004 16.98 9.23834 16.98 12.0001C16.98 14.7607 14.8616 16.9999 12.2502 16.9999ZM16.9795 5.49992C16.9795 6.32822 17.614 6.99992 18.3984 6.99992C19.1827 6.99992 19.8173 6.32822 19.8173 5.49992C19.8173 4.67162 19.1827 3.99992 18.3984 3.99992C17.614 3.99992 16.9795 4.67162 16.9795 5.49992Z" fill="#353C4B" fill-opacity="0.4"/>
</svg>
