<svg width="33" height="24" viewBox="0 0 33 24" fill="none" xmlns="http://www.w3.org/2000/svg">
<path d="M19.3 3.27823C18.9688 2.92279 18.7885 2.45268 18.7971 1.96692C18.8056 1.48117 19.0024 1.01771 19.3459 0.674175C19.6895 0.330642 20.1529 0.133863 20.6387 0.125292C21.1244 0.116722 21.5946 0.297029 21.95 0.628229L31.95 10.6282C32.3011 10.9798 32.4984 11.4564 32.4984 11.9532C32.4984 12.4501 32.3011 12.9267 31.95 13.2782L21.95 23.2782C21.7783 23.4624 21.5713 23.6102 21.3413 23.7127C21.1113 23.8152 20.8631 23.8703 20.6113 23.8747C20.3596 23.8791 20.1095 23.8328 19.876 23.7385C19.6425 23.6442 19.4305 23.5039 19.2524 23.3258C19.0744 23.1478 18.934 22.9357 18.8397 22.7022C18.7454 22.4687 18.6991 22.2187 18.7035 21.9669C18.708 21.7152 18.7631 21.4669 18.8655 21.2369C18.968 21.0069 19.1158 20.7999 19.3 20.6282L26.1 13.8282H1.875C1.37772 13.8282 0.900805 13.6307 0.549175 13.2791C0.197544 12.9274 0 12.4505 0 11.9532C0 11.4559 0.197544 10.979 0.549175 10.6274C0.900805 10.2758 1.37772 10.0782 1.875 10.0782H26.1L19.3 3.27823Z" fill="white"/>
</svg>
