<svg width="75" height="75" viewBox="0 0 75 75" fill="none" xmlns="http://www.w3.org/2000/svg">
<path d="M51.4114 44.0936C51.2904 43.9507 51.1717 43.8079 51.0551 43.67C49.4523 41.7693 48.4826 40.6221 48.4826 35.2414C48.4826 32.4557 47.8028 30.17 46.463 28.4557C45.4751 27.1893 44.1397 26.2286 42.3795 25.5186C42.3569 25.5062 42.3366 25.49 42.3198 25.4707C41.6867 23.3921 39.9542 22 38.0002 22C36.0462 22 34.3144 23.3921 33.6813 25.4686C33.6645 25.4872 33.6445 25.5029 33.6223 25.515C29.5147 27.1729 27.5185 30.3536 27.5185 35.2393C27.5185 40.6221 26.5503 41.7693 24.946 43.6679C24.8294 43.8057 24.7107 43.9457 24.5897 44.0914C24.2773 44.4608 24.0794 44.9102 24.0193 45.3864C23.9593 45.8626 24.0397 46.3457 24.2509 46.7786C24.7005 47.7071 25.6585 48.2836 26.7521 48.2836H49.2563C50.3448 48.2836 51.2963 47.7079 51.7472 46.7836C51.9594 46.3506 52.0405 45.8671 51.981 45.3904C51.9215 44.9136 51.7238 44.4636 51.4114 44.0936ZM38.0002 54C39.053 53.9992 40.0859 53.719 40.9894 53.1892C41.8929 52.6594 42.6333 51.8997 43.1321 50.9907C43.1556 50.9472 43.1672 50.8984 43.1658 50.8491C43.1644 50.7999 43.15 50.7518 43.124 50.7096C43.0981 50.6674 43.0614 50.6325 43.0177 50.6083C42.9739 50.5841 42.9245 50.5714 42.8742 50.5714H33.1276C33.0773 50.5713 33.0278 50.5839 32.9839 50.608C32.94 50.6322 32.9033 50.6671 32.8772 50.7093C32.8512 50.7515 32.8367 50.7996 32.8353 50.8489C32.8339 50.8983 32.8455 50.9471 32.869 50.9907C33.3677 51.8996 34.108 52.6592 35.0114 53.189C35.9147 53.7188 36.9475 53.999 38.0002 54Z" fill="#353C4B"/>
<circle cx="37.5" cy="37.5" r="37.5" fill="#353C4B" fill-opacity="0.1"/>
</svg>
