<svg width="75" height="75" viewBox="0 0 75 75" fill="none" xmlns="http://www.w3.org/2000/svg">
<path d="M54 47.2632C54 49.0499 53.3046 50.7634 52.0669 52.0268C50.8292 53.2902 49.1504 54 47.4 54H40.8C39.0496 54 37.3708 53.2902 36.1331 52.0268C34.8954 50.7634 34.2 49.0499 34.2 47.2632V43.8947H54V47.2632ZM24.3 22H40.8C41.6752 22 42.5146 22.3549 43.1335 22.9866C43.7523 23.6183 44.1 24.4751 44.1 25.3684V40.5263H30.9V48.9474H24.3C23.4248 48.9474 22.5854 48.5925 21.9665 47.9608C21.3477 47.3291 21 46.4723 21 45.5789V25.3684C21 24.4751 21.3477 23.6183 21.9665 22.9866C22.5854 22.3549 23.4248 22 24.3 22ZM24.3 27.0526V30.4211H27.6V27.0526H24.3ZM40.8 30.4211V27.0526H30.9V30.4211H40.8ZM24.3 33.7895V37.1579H27.6V33.7895H24.3ZM30.9 33.7895V37.1579H40.8V33.7895H30.9ZM24.3 40.5263V43.8947H27.6V40.5263H24.3Z" fill="#353C4B"/>
<circle cx="37.5" cy="37.5" r="37.5" fill="#353C4B" fill-opacity="0.1"/>
</svg>
