<svg width="75" height="75" viewBox="0 0 75 75" fill="none" xmlns="http://www.w3.org/2000/svg">
<path d="M38.1439 35.3728C39.3748 35.3728 40.3727 34.375 40.3727 33.144C40.3727 31.9131 39.3748 30.9152 38.1439 30.9152C36.9129 30.9152 35.915 31.9131 35.915 33.144C35.915 34.375 36.9129 35.3728 38.1439 35.3728Z" fill="#353C4B"/>
<path d="M38.1441 22C31.9995 22 27 26.7815 27 32.6565C27 35.4544 28.2753 39.1751 30.7904 43.7156C32.8102 47.3611 35.147 50.6576 36.3624 52.2979C36.5678 52.5782 36.8363 52.8061 37.1462 52.9632C37.4561 53.1203 37.7987 53.2022 38.1461 53.2022C38.4936 53.2022 38.8362 53.1203 39.1461 52.9632C39.456 52.8061 39.7245 52.5782 39.9299 52.2979C41.1432 50.6576 43.4821 47.3611 45.5019 43.7156C48.0128 39.1765 49.2881 35.4558 49.2881 32.6565C49.2881 26.7815 44.2886 22 38.1441 22ZM38.1441 37.6017C37.2624 37.6017 36.4006 37.3402 35.6675 36.8504C34.9345 36.3606 34.3631 35.6644 34.0257 34.8499C33.6884 34.0354 33.6001 33.1391 33.7721 32.2744C33.9441 31.4097 34.3686 30.6155 34.992 29.992C35.6155 29.3686 36.4097 28.9441 37.2744 28.7721C38.1391 28.6001 39.0354 28.6884 39.8499 29.0257C40.6644 29.3631 41.3606 29.9345 41.8504 30.6675C42.3402 31.4006 42.6017 32.2624 42.6017 33.1441C42.6004 34.3259 42.1303 35.459 41.2946 36.2946C40.459 37.1303 39.3259 37.6004 38.1441 37.6017Z" fill="#353C4B"/>
<circle cx="37.5" cy="37.5" r="37.5" fill="#353C4B" fill-opacity="0.1"/>
</svg>
