<svg width="75" height="75" viewBox="0 0 75 75" fill="none" xmlns="http://www.w3.org/2000/svg">
<path d="M45.2581 38C49.7168 38 53.3355 34.416 53.3355 30C53.3355 25.584 49.7168 22 45.2581 22C40.7993 22 37.1807 25.584 37.1807 30C37.1807 34.416 40.7993 38 45.2581 38ZM54.0624 46.96C53.4324 46.32 52.6408 46 51.72 46H40.4116L37.0514 44.832L37.5845 43.328L40.4116 44.4H44.935C45.5004 44.4 45.9527 44.176 46.3243 43.808C46.6958 43.44 46.8736 42.992 46.8736 42.496C46.8736 41.632 46.4535 41.04 45.6135 40.704L33.8689 36.4H30.7187V50.8L42.0271 54L54.9994 49.2C55.0156 48.352 54.6925 47.6 54.0624 46.96ZM27.4878 36.4H21V54H27.4878V36.4Z" fill="#353C4B"/>
<circle cx="37.5" cy="37.5" r="37.5" fill="#353C4B" fill-opacity="0.1"/>
</svg>
