<svg width="500" height="500" viewBox="0 0 500 500" fill="none" xmlns="http://www.w3.org/2000/svg">
<path d="M330.49 47.67C330.49 47.67 250.25 17.78 172.41 62.78C94.5697 107.78 56.1497 198.56 23.0797 271.25C-9.99028 343.94 10.4997 418.58 70.7697 453.25C131.04 487.92 171.13 438.44 255.06 437.07C338.99 435.7 361.73 448.19 430.8 400.83C499.87 353.47 511.06 239.71 455.05 154.72C399.04 69.73 330.49 47.67 330.49 47.67Z" fill="#A3EDB8"/>
<path opacity="0.7" d="M330.49 47.67C330.49 47.67 250.25 17.78 172.41 62.78C94.5697 107.78 56.1497 198.56 23.0797 271.25C-9.99028 343.94 10.4997 418.58 70.7697 453.25C131.04 487.92 171.13 438.44 255.06 437.07C338.99 435.7 361.73 448.19 430.8 400.83C499.87 353.47 511.06 239.71 455.05 154.72C399.04 69.73 330.49 47.67 330.49 47.67Z" fill="white"/>
<g opacity="0.3">
<path d="M96.314 130.486C110.482 116.317 110.482 93.3462 96.314 79.178C82.1458 65.0097 59.1746 65.0097 45.0064 79.178C30.8382 93.3462 30.8382 116.317 45.0064 130.486C59.1746 144.654 82.1458 144.654 96.314 130.486Z" stroke="black" stroke-miterlimit="10"/>
<path d="M70.6596 138.64C89.3324 138.64 104.47 123.503 104.47 104.83C104.47 86.1573 89.3324 71.02 70.6596 71.02C51.9869 71.02 36.8496 86.1573 36.8496 104.83C36.8496 123.503 51.9869 138.64 70.6596 138.64Z" stroke="black" stroke-miterlimit="10"/>
<path d="M77.1002 114.98L70.6602 104.83H42.9502" stroke="black" stroke-miterlimit="10"/>
</g>
<g opacity="0.3">
<path d="M376.79 69.08H339.94V144.08H376.79V69.08Z" stroke="black" stroke-miterlimit="10"/>
<path d="M418.17 69.08H381.32V144.08H418.17V69.08Z" stroke="black" stroke-miterlimit="10"/>
<path d="M459.55 69.08H422.7V144.08H459.55V69.08Z" stroke="black" stroke-miterlimit="10"/>
<path d="M376.79 147.95H339.94V222.95H376.79V147.95Z" stroke="black" stroke-miterlimit="10"/>
<path d="M418.17 147.95H381.32V222.95H418.17V147.95Z" stroke="black" stroke-miterlimit="10"/>
<path d="M459.55 147.95H422.7V222.95H459.55V147.95Z" stroke="black" stroke-miterlimit="10"/>
<path d="M376.79 226.83H339.94V301.83H376.79V226.83Z" stroke="black" stroke-miterlimit="10"/>
<path d="M418.17 226.83H381.32V301.83H418.17V226.83Z" stroke="black" stroke-miterlimit="10"/>
<path d="M459.55 226.83H422.7V301.83H459.55V226.83Z" stroke="black" stroke-miterlimit="10"/>
<path d="M376.79 305.71H339.94V380.71H376.79V305.71Z" stroke="black" stroke-miterlimit="10"/>
<path d="M418.17 305.71H381.32V380.71H418.17V305.71Z" stroke="black" stroke-miterlimit="10"/>
<path d="M459.55 305.71H422.7V380.71H459.55V305.71Z" stroke="black" stroke-miterlimit="10"/>
</g>
<path d="M25.9404 388.51H492.71" stroke="#263238" stroke-miterlimit="10"/>
<path d="M55.5795 288.17C55.5748 288.16 55.5723 288.148 55.5723 288.137C55.5723 288.125 55.5747 288.114 55.5794 288.104C55.5842 288.093 55.5911 288.084 55.5997 288.076C55.6084 288.069 55.6185 288.063 55.6295 288.06C55.6508 288.055 55.6731 288.058 55.6929 288.067C55.7128 288.076 55.7292 288.091 55.7395 288.11C58.2782 294.164 60.2858 300.428 61.7395 306.83C63.1903 313.23 64.2787 319.707 64.9995 326.23L65.4595 331.13C65.5395 331.95 65.6195 332.77 65.6795 333.59L65.8195 336.05C65.8895 337.69 65.9895 339.33 66.0295 340.98V345.91V348.37C66.0295 349.19 65.9295 350.01 65.8695 350.83C65.7495 352.47 65.6495 354.11 65.4995 355.74C65.1895 359.01 64.6895 362.26 64.1895 365.5C64.1834 365.518 64.1719 365.533 64.1567 365.544C64.1414 365.555 64.1232 365.561 64.1045 365.561C64.0858 365.561 64.0676 365.555 64.0524 365.544C64.0372 365.533 64.0257 365.518 64.0195 365.5C64.0195 363.86 64.0995 362.22 64.1295 360.59C64.1595 358.96 64.3195 357.33 64.2995 355.69C64.2795 354.05 64.2995 352.43 64.2995 350.8V348.36V345.91V341.03L64.1695 336.14L64.1195 333.7C64.1195 332.89 64.0295 332.08 63.9795 331.26L63.6795 326.38C63.1085 319.872 62.1703 313.402 60.8695 307C59.6537 300.582 57.8838 294.282 55.5795 288.17Z" fill="#263238"/>
<path d="M54.8799 313.71C54.886 313.692 54.8975 313.677 54.9127 313.666C54.928 313.655 54.9462 313.65 54.9649 313.65C54.9836 313.65 55.0018 313.655 55.017 313.666C55.0323 313.677 55.0437 313.692 55.0499 313.71C56.4325 317.78 57.5909 321.923 58.5199 326.12C59.4421 330.329 60.1299 334.585 60.5799 338.87C61.0099 343.14 61.4899 347.42 61.5799 351.72C61.6815 356.022 61.5279 360.326 61.1199 364.61C61.115 364.629 61.105 364.647 61.091 364.661C61.0769 364.675 61.0592 364.685 61.0399 364.69C61.0286 364.692 61.0171 364.691 61.0062 364.687C60.9953 364.684 60.9853 364.678 60.9767 364.671C60.9682 364.663 60.9614 364.654 60.9568 364.643C60.9521 364.633 60.9498 364.621 60.9499 364.61C60.4499 360.33 60.1499 356.06 59.8499 351.79C59.5499 347.52 59.5099 343.25 59.2299 338.98C58.9576 334.722 58.4502 330.482 57.7099 326.28C56.9978 322.041 56.053 317.845 54.8799 313.71Z" fill="#263238"/>
<path d="M40.72 322.7C40.7373 322.687 40.7583 322.68 40.78 322.68C40.8016 322.68 40.8226 322.687 40.84 322.7C44.3812 324.979 47.5714 327.761 50.31 330.96C51.6856 332.57 52.9233 334.293 54.01 336.11L54.77 337.54L55.37 339.04C55.5686 339.534 55.7422 340.038 55.89 340.55C56.04 341.06 56.21 341.55 56.35 342.08C57.4476 346.163 58.1179 350.349 58.35 354.57C58.5586 358.769 58.4014 362.978 57.88 367.15C57.8775 367.169 57.868 367.187 57.8533 367.2C57.8385 367.213 57.8195 367.22 57.8 367.22C57.7881 367.221 57.7761 367.22 57.7647 367.217C57.7532 367.214 57.7425 367.208 57.7332 367.201C57.7239 367.194 57.7162 367.184 57.7105 367.174C57.7048 367.163 57.7012 367.152 57.7 367.14L56.63 354.69C56.3159 350.56 55.7718 346.45 55 342.38C54.89 341.88 54.74 341.38 54.61 340.89C54.4956 340.392 54.3521 339.901 54.18 339.42L53.68 338L53 336.63C52.0134 334.82 50.8795 333.094 49.61 331.47C47.0787 328.174 44.0844 325.26 40.72 322.82C40.7083 322.802 40.7021 322.781 40.7021 322.76C40.7021 322.739 40.7083 322.718 40.72 322.7Z" fill="#263238"/>
<path d="M47.57 338.7C49.41 340.047 50.8902 341.826 51.88 343.88C52.916 345.897 53.7244 348.024 54.29 350.22C54.4592 350.759 54.5994 351.306 54.7099 351.86L55.0999 353.52C55.3093 354.63 55.4496 355.752 55.52 356.88C55.52 358.01 55.52 359.14 55.52 360.27C55.438 361.398 55.2911 362.519 55.08 363.63C55.0754 363.647 55.0665 363.662 55.0542 363.674C55.0419 363.687 55.0267 363.695 55.0099 363.7C54.9987 363.703 54.987 363.703 54.9755 363.701C54.9641 363.699 54.9532 363.695 54.9437 363.688C54.9342 363.682 54.9263 363.673 54.9204 363.663C54.9146 363.653 54.911 363.642 54.91 363.63C54.6481 362.539 54.4477 361.434 54.31 360.32C54.14 359.22 53.97 358.13 53.83 357.04C53.69 355.95 53.53 354.88 53.45 353.78C53.37 352.68 53.2099 351.6 52.9799 350.53C52.5971 348.375 51.9767 346.269 51.13 344.25C50.37 342.19 49.1329 340.34 47.52 338.85C47.5059 338.835 47.498 338.816 47.498 338.795C47.498 338.775 47.5059 338.755 47.52 338.74C47.5251 338.73 47.5322 338.722 47.5408 338.715C47.5494 338.708 47.5593 338.703 47.57 338.7Z" fill="#263238"/>
<path d="M67.4296 351.18C67.8996 345.65 68.8096 340.18 69.6696 334.7C70.5296 329.22 71.4896 323.78 72.4896 318.33C73.4896 312.88 74.6096 307.46 75.7896 302.06C75.7896 302.039 75.798 302.018 75.813 302.003C75.828 301.988 75.8484 301.98 75.8696 301.98C75.8908 301.98 75.9111 301.988 75.9261 302.003C75.9411 302.018 75.9496 302.039 75.9496 302.06C75.0096 307.513 74.1396 312.977 73.3396 318.45C72.5096 323.91 71.7296 329.39 71.0396 334.87C70.3496 340.35 69.8396 345.87 69.1496 351.33L67.1496 367.79C67.1471 367.809 67.1376 367.827 67.1229 367.84C67.1081 367.853 67.0892 367.86 67.0696 367.86C67.0583 367.861 67.0468 367.86 67.0359 367.857C67.025 367.854 67.015 367.848 67.0064 367.84C66.9979 367.833 66.9911 367.824 66.9865 367.813C66.9818 367.803 66.9795 367.791 66.9796 367.78C66.9096 366.39 66.9096 365.01 66.8796 363.62C66.8496 362.23 66.8796 360.84 66.9596 359.45C66.9996 356.71 67.2296 353.94 67.4296 351.18Z" fill="#263238"/>
<path d="M70.7492 351.1C71.0492 348.91 71.4492 346.73 71.8692 344.56L72.6392 341.33C72.8992 340.26 73.1392 339.18 73.4492 338.11C74.5577 333.825 75.9713 329.624 77.6792 325.54L78.3392 324.02L79.0792 322.53C79.5492 321.53 80.0792 320.53 80.6492 319.61C81.74 317.676 83.0853 315.897 84.6492 314.32C84.6651 314.304 84.6867 314.295 84.7092 314.295C84.7317 314.295 84.7533 314.304 84.7692 314.32C84.7851 314.336 84.7941 314.358 84.7941 314.38C84.7941 314.403 84.7851 314.424 84.7692 314.44C83.3177 316.073 82.0902 317.893 81.1192 319.85C80.6392 320.85 80.1192 321.8 79.7192 322.85L79.0692 324.35L78.4992 325.89C76.9703 329.986 75.7371 334.187 74.8092 338.46C74.3092 340.59 73.9792 342.76 73.5592 344.9L72.9992 348.12C72.8092 349.2 72.5792 350.27 72.4292 351.35C72.0792 353.52 71.6792 355.67 71.3092 357.83C70.9392 359.99 70.5792 362.17 70.1192 364.34C70.1131 364.359 70.1013 364.377 70.0852 364.389C70.0691 364.402 70.0496 364.409 70.0292 364.41C70.0071 364.408 69.9867 364.397 69.972 364.38C69.9572 364.364 69.9491 364.342 69.9492 364.32C69.9492 362.113 69.9992 359.903 70.0992 357.69C70.2592 355.49 70.5192 353.3 70.7492 351.1Z" fill="#263238"/>
<path d="M75.3299 351.38C76.3299 348.48 77.5299 345.64 78.8299 342.85C80.1302 340.073 81.5996 337.377 83.2299 334.78C83.2441 334.766 83.2627 334.756 83.2827 334.754C83.3027 334.751 83.323 334.756 83.3403 334.766C83.3576 334.776 83.3709 334.792 83.3781 334.811C83.3853 334.83 83.3859 334.851 83.3799 334.87C81.9584 337.568 80.7028 340.349 79.6199 343.2C78.4999 346.02 77.4799 348.89 76.6199 351.81C75.7599 354.73 75.1299 357.69 74.3599 360.61C73.5899 363.53 72.8899 366.49 71.9899 369.45C71.9822 369.468 71.9697 369.483 71.9537 369.493C71.9378 369.504 71.9191 369.51 71.8999 369.51C71.8787 369.51 71.8583 369.502 71.8433 369.487C71.8283 369.472 71.8199 369.451 71.8199 369.43C71.7753 366.341 72.0636 363.257 72.6799 360.23C73.322 357.213 74.2083 354.253 75.3299 351.38Z" fill="#263238"/>
<path d="M75.5197 361C76.0769 359.191 76.8955 357.473 77.9497 355.9C78.9253 354.28 80.1161 352.8 81.4897 351.5C82.1901 350.871 82.9428 350.302 83.7397 349.8C84.5289 349.285 85.3922 348.894 86.2997 348.64C86.3195 348.636 86.3402 348.639 86.3584 348.648C86.3765 348.657 86.3911 348.672 86.3997 348.69C86.4137 348.705 86.4216 348.725 86.4216 348.745C86.4216 348.766 86.4137 348.785 86.3997 348.8C84.765 349.577 83.3184 350.7 82.1597 352.09C80.9644 353.439 79.9554 354.943 79.1597 356.56C78.3197 358.15 77.8897 359.91 77.1597 361.56C76.8397 362.4 76.5197 363.25 76.1597 364.08C75.8272 364.967 75.4398 365.832 74.9997 366.67C74.994 366.684 74.9844 366.696 74.972 366.705C74.9596 366.714 74.9449 366.719 74.9297 366.72C74.9058 366.72 74.8829 366.711 74.866 366.694C74.8492 366.677 74.8397 366.654 74.8397 366.63C74.808 365.689 74.8414 364.747 74.9397 363.81C75.0997 362.88 75.2897 362 75.5197 361Z" fill="#263238"/>
<path d="M75.1694 310C77.9316 309.229 80.4304 307.717 82.3956 305.629C84.3608 303.54 85.7177 300.954 86.3194 298.15C88.4094 288.4 81.6794 292.58 87.7194 277.25C93.7594 261.92 92.3594 258.4 90.2694 254C88.1794 249.6 87.0194 251 85.1594 256.78C83.2994 262.56 76.5694 271.64 73.9994 288.6C71.4294 305.56 75.1694 310 75.1694 310Z" fill="#CFE699"/>
<path d="M57.2896 293.48C57.2896 293.48 63.2896 291.39 63.5596 280C63.8296 268.61 59.1396 270.94 58.4496 256.77C57.7596 242.6 56.8196 232.62 54.2696 232.38C51.7196 232.14 44.9696 239.38 42.6496 255.15C40.3296 270.92 45.6496 281.4 50.3196 286.04C54.9896 290.68 57.2896 293.48 57.2896 293.48Z" fill="#CFE699"/>
<path d="M78.4297 323.68C78.4297 323.68 79.8197 315.31 82.6097 311.36C85.3997 307.41 91.4297 303.93 95.3797 296.26C99.3297 288.59 103.75 284.88 103.51 295.8C103.27 306.72 98.3997 312.29 92.3597 316C86.3197 319.71 78.4297 323.68 78.4297 323.68Z" fill="#CFE699"/>
<path d="M81 338.08C81 338.08 86.58 327.39 94.71 319.49C102.84 311.59 109.34 307.65 107.02 311.6C104.7 315.55 101.91 315.31 97.96 322.28C94.01 329.25 95.17 334.36 89.6 338.28C84.03 342.2 81 338.08 81 338.08Z" fill="#CFE699"/>
<path d="M81.6797 351.78C81.9097 351.09 82.1397 345.98 90.0397 341.78C97.9397 337.58 105.37 339.22 104.44 341.31C103.51 343.4 98.6397 346.89 93.7597 348.98C88.8797 351.07 81.6797 351.78 81.6797 351.78Z" fill="#CFE699"/>
<path d="M57.7494 324.14C57.7494 324.14 61.2394 319.73 59.3794 310.44C57.5194 301.15 53.3794 303.44 48.6894 298.59C43.9994 293.74 44.9994 293 40.3294 287.9C35.6594 282.8 31.4994 280 29.6394 282.09C27.7794 284.18 30.5694 290.69 33.3594 294.41C36.1494 298.13 40.5594 299.98 42.6494 304.63C44.7394 309.28 43.8094 316.71 49.1594 320.19C54.5094 323.67 57.7494 324.14 57.7494 324.14Z" fill="#CFE699"/>
<path d="M46.1396 326.7C46.1396 326.7 37.7696 317.17 31.7296 310.2C25.6896 303.23 23.3696 297.89 23.1396 302.54C22.9096 307.19 21.0496 310.9 25.9296 316.94C30.8096 322.98 46.1396 326.7 46.1396 326.7Z" fill="#CFE699"/>
<path d="M50.5495 342C50.5495 342 50.7795 338.28 37.5495 329.69C24.3195 321.1 18.7195 319.49 20.1195 323C21.5195 326.51 27.3195 330 33.5895 336.24C39.8595 342.48 50.5495 342 50.5495 342Z" fill="#CFE699"/>
<path d="M74.6191 309C74.6191 309 77.7291 292.34 80.9791 280.49C84.2291 268.64 86.3191 261.44 86.3191 261.44" stroke="#263238" stroke-linecap="round" stroke-linejoin="round"/>
<path d="M57.8195 293.65C57.8195 293.65 52.1795 275.59 50.3195 264.65C48.4595 253.71 50.5495 245.6 51.4795 240.73" stroke="#263238" stroke-linecap="round" stroke-linejoin="round"/>
<path d="M79.1592 323.33C81.6607 319.028 84.5244 314.946 87.7192 311.13C92.8292 305.13 96.7792 301.84 99.0992 296.03" stroke="#263238" stroke-linecap="round" stroke-linejoin="round"/>
<path d="M57.75 324.14C57.75 324.14 55.89 312.99 51.48 307.14C47.07 301.29 38.24 292.28 34.75 286.47" stroke="#263238" stroke-linecap="round" stroke-linejoin="round"/>
<path d="M82.2197 351.53C82.2197 351.53 90.0397 346.44 95.6197 343.65" stroke="#263238" stroke-linecap="round" stroke-linejoin="round"/>
<path d="M57.7295 413.08C55.9859 413.072 54.3082 412.413 53.0245 411.233C51.7409 410.053 50.9439 408.437 50.7895 406.7C49.6295 392.9 47.2095 361.9 48.4595 360.38C53.5795 354.14 75.6295 354.14 80.7495 360.38C81.9995 361.9 79.5795 392.9 78.4195 406.7C78.2642 408.447 77.4586 410.072 76.1623 411.254C74.866 412.435 73.1734 413.087 71.4195 413.08H57.7295Z" fill="#263238" stroke="#263238" stroke-linecap="round" stroke-linejoin="round"/>
<path d="M186.79 295.19H181.37V316.87H186.79V295.19Z" fill="#263238" stroke="#263238" stroke-linecap="round" stroke-linejoin="round"/>
<path d="M270.46 295.19H265.04V316.87H270.46V295.19Z" fill="#263238" stroke="#263238" stroke-linecap="round" stroke-linejoin="round"/>
<path d="M193.23 224.37H256.73C258.642 224.37 260.476 225.13 261.828 226.482C263.18 227.834 263.94 229.668 263.94 231.58V326.2H186V231.58C186 230.632 186.187 229.692 186.551 228.816C186.914 227.94 187.447 227.144 188.119 226.475C188.79 225.805 189.588 225.274 190.465 224.913C191.342 224.552 192.281 224.367 193.23 224.37Z" fill="#ABABAB" stroke="#263238" stroke-linecap="round" stroke-linejoin="round"/>
<path d="M189.499 413.07C191.742 413.07 193.559 411.252 193.559 409.01C193.559 406.768 191.742 404.95 189.499 404.95C187.257 404.95 185.439 406.768 185.439 409.01C185.439 411.252 187.257 413.07 189.499 413.07Z" fill="white" stroke="#263238" stroke-linecap="round" stroke-linejoin="round"/>
<path d="M229.129 409C229.129 408.195 228.89 407.407 228.443 406.738C227.995 406.068 227.359 405.547 226.614 405.239C225.87 404.931 225.051 404.851 224.262 405.009C223.472 405.167 222.747 405.555 222.178 406.126C221.609 406.696 221.222 407.422 221.066 408.212C220.91 409.002 220.992 409.821 221.302 410.565C221.612 411.308 222.135 411.943 222.805 412.389C223.476 412.835 224.264 413.072 225.069 413.07C225.603 413.07 226.132 412.965 226.625 412.76C227.119 412.555 227.567 412.255 227.944 411.877C228.321 411.499 228.62 411.051 228.823 410.557C229.027 410.063 229.131 409.534 229.129 409Z" fill="white" stroke="#263238" stroke-linecap="round" stroke-linejoin="round"/>
<path d="M264.7 409C264.7 408.195 264.461 407.408 264.014 406.739C263.566 406.07 262.931 405.548 262.187 405.24C261.443 404.932 260.625 404.851 259.836 405.008C259.046 405.165 258.321 405.553 257.752 406.122C257.182 406.691 256.795 407.417 256.638 408.206C256.481 408.996 256.561 409.814 256.869 410.558C257.177 411.301 257.699 411.937 258.368 412.384C259.038 412.831 259.825 413.07 260.63 413.07C261.709 413.07 262.744 412.641 263.507 411.878C264.271 411.115 264.7 410.079 264.7 409Z" fill="white" stroke="#263238" stroke-linecap="round" stroke-linejoin="round"/>
<path d="M228.74 388.6V321.62H221.6V388.17L221.34 388.35L184.42 403.25V407.66H190.18V404.61L222.17 399.9L222.76 407.66H227.03L227.62 399.95L259.28 404.61V407.66H265.04V403.25L228.74 388.6Z" fill="#263238" stroke="#263238" stroke-linecap="round" stroke-linejoin="round"/>
<path d="M236.319 329.03H213.649V337.06H236.319V329.03Z" fill="#263238" stroke="#263238" stroke-linecap="round" stroke-linejoin="round"/>
<path d="M267.579 311.56H182.389C180.876 311.56 179.649 312.787 179.649 314.3V326.76C179.649 328.273 180.876 329.5 182.389 329.5H267.579C269.093 329.5 270.319 328.273 270.319 326.76V314.3C270.319 312.787 269.093 311.56 267.579 311.56Z" fill="#ABABAB" stroke="#263238" stroke-linecap="round" stroke-linejoin="round"/>
<path d="M183.84 282.65H177.2C175.946 282.65 174.93 283.666 174.93 284.92V296.98C174.93 298.234 175.946 299.25 177.2 299.25H183.84C185.093 299.25 186.11 298.234 186.11 296.98V284.92C186.11 283.666 185.093 282.65 183.84 282.65Z" fill="#ABABAB" stroke="#263238" stroke-linecap="round" stroke-linejoin="round"/>
<path d="M272.42 282.65H265.78C264.526 282.65 263.51 283.666 263.51 284.92V296.98C263.51 298.234 264.526 299.25 265.78 299.25H272.42C273.673 299.25 274.69 298.234 274.69 296.98V284.92C274.69 283.666 273.673 282.65 272.42 282.65Z" fill="#ABABAB" stroke="#263238" stroke-linecap="round" stroke-linejoin="round"/>
<path d="M102.85 309.11L343.35 309.11V285.71H102.85V309.11Z" fill="white" stroke="#263238" stroke-linecap="round" stroke-linejoin="round"/>
<path d="M102.85 291.93L343.35 291.93V285.71L102.85 285.71V291.93Z" fill="#263238" stroke="#263238" stroke-linecap="round" stroke-linejoin="round"/>
<path d="M340.82 413.08H344.23L345.36 285.37H339.68L340.82 413.08Z" fill="white" stroke="#263238" stroke-linecap="round" stroke-linejoin="round"/>
<path d="M101.65 413.08H105.06L106.2 285.37H100.52L101.65 413.08Z" fill="white" stroke="#263238" stroke-linecap="round" stroke-linejoin="round"/>
<path d="M97.3496 287.58L348.81 287.58V282.3L97.3496 282.3V287.58Z" fill="white" stroke="#263238" stroke-linecap="round" stroke-linejoin="round"/>
<path d="M192.84 282.61H268.5V279.49H192.84V282.61Z" fill="white" stroke="#263238" stroke-linecap="round" stroke-linejoin="round"/>
<path d="M251.49 268.31H342.52V206.97H251.49V268.31Z" fill="#263238" stroke="#263238" stroke-linecap="round" stroke-linejoin="round"/>
<path d="M271.149 282.61H307.989V279.15H271.149V282.61Z" fill="#ABABAB" stroke="#263238" stroke-linecap="round" stroke-linejoin="round"/>
<path d="M286.029 282.61H307.989V242.9H286.029V282.61Z" fill="#ABABAB" stroke="#263238" stroke-linecap="round" stroke-linejoin="round"/>
<path d="M217.69 74.02L227.95 76.58" stroke="#263238" stroke-miterlimit="10"/>
<path d="M234.36 53.5L237.35 60.34" stroke="#263238" stroke-miterlimit="10"/>
<path d="M295.071 74.02L284.811 76.58" stroke="#263238" stroke-miterlimit="10"/>
<path d="M278.39 53.5L275.4 60.34" stroke="#263238" stroke-miterlimit="10"/>
<path d="M257.021 44.52V53.07" stroke="#263238" stroke-miterlimit="10"/>
<path d="M266.08 93.3499L264 80.4099C264 80.4099 263 71.6499 263 68.7699C263 65.8899 261.95 65.6299 261.56 66.1599L260.38 66.8099C260.38 66.8099 259.99 63.4099 258.94 64.4599C258.299 65.1428 257.889 66.0107 257.77 66.9399C256.983 68.4215 256.411 70.0074 256.07 71.6499C255.817 73.1531 255.643 74.6685 255.55 76.1899L254.89 75.3099C254.89 75.3099 254.5 70.9899 254.37 70.0799C254.24 69.1699 252.8 70.2099 252.67 73.4799C252.57 76.0299 254.06 82.5599 254.67 85.3099C254.32 88.2499 254.01 91.9099 254.45 93.6099C255.035 95.6954 256.013 97.6502 257.33 99.3699C257.85 100.15 260.99 108.65 260.99 108.65L270.4 104.47L266.08 93.3499Z" fill="white" stroke="#263238" stroke-miterlimit="10"/>
<path d="M262.55 88.12C262.55 88.12 259.8 83.02 259.28 82.12C258.76 81.22 255.62 77.41 254.83 75.32C254.04 73.23 252.22 76.1 253 78.32C253.78 80.54 256.92 84.59 256.92 84.59C256.337 86.7553 256.477 89.0518 257.32 91.13C258.257 92.992 259.768 94.5031 261.63 95.44" fill="white"/>
<path d="M262.55 88.12C262.55 88.12 259.8 83.02 259.28 82.12C258.76 81.22 255.62 77.41 254.83 75.32C254.04 73.23 252.22 76.1 253 78.32C253.78 80.54 256.92 84.59 256.92 84.59C256.337 86.7553 256.477 89.0518 257.32 91.13C258.257 92.992 259.768 94.5031 261.63 95.44" stroke="#263238" stroke-miterlimit="10"/>
<path d="M260.32 66.8099C260.32 66.8099 259.41 77.0099 259.8 80.9299" stroke="#263238" stroke-miterlimit="10"/>
<path d="M257.71 66.9399C257.71 66.9399 256.79 75.0499 257.32 78.4499" stroke="#263238" stroke-miterlimit="10"/>
<path d="M335.3 160.41C335.3 160.41 319.19 154.8 318.11 154.8C317.03 154.8 305.75 153.99 305.75 153.99L292.41 146.99L270.91 103.34L258.24 109.49C258.24 109.49 262.76 132.84 266.38 145.69C270 158.54 274.13 166 274.13 166L302.91 187.41L304.35 189.41L335.3 160.41Z" fill="#ADD5D9" stroke="#263238" stroke-miterlimit="10"/>
<path d="M289.689 213.26C289.689 213.26 283.689 239.32 283.689 253.26C283.689 267.2 284.049 270.81 284.959 271.36C285.869 271.91 296.179 273.71 297.079 273.53C297.979 273.35 300.699 272.44 300.699 272.44C300.699 272.44 313.999 209.82 315.389 202C316.779 194.18 318.829 177.2 318.829 177.2C318.829 177.2 303.629 190.2 299.469 194.76C295.309 199.32 295.669 199.47 293.859 202.9C292.275 206.272 290.883 209.731 289.689 213.26Z" fill="#ADD5D9" stroke="#263238" stroke-miterlimit="10"/>
<path d="M296.59 412.33C296.59 412.33 291.74 420.33 290.89 421.19C290.04 422.05 282.66 426.46 280.55 427.1C278.44 427.74 276.12 429 276.12 431.1C276.12 433.2 283.12 434.26 286.67 434.26C290.22 434.26 300.81 433.63 302.08 433.63C303.625 433.525 305.175 433.525 306.72 433.63C307.72 433.84 313.05 434.68 314.53 434.05C316.01 433.42 317.27 428.14 316.85 425.82C316.43 423.5 315.16 418.22 315.16 418.22L296.59 412.33Z" fill="white" stroke="#263238" stroke-miterlimit="10"/>
<path d="M361.16 420.34L357.58 426.25C355.24 428.37 352.772 430.344 350.19 432.16C343.72 436.16 352.94 438.57 357.19 438.28C360.19 438.08 365.63 438.07 367.32 437.28C371.248 434.944 375.053 432.407 378.72 429.68C381.46 427.57 381.67 425.25 381.25 422.5C380.722 420.092 379.945 417.746 378.93 415.5C378.93 415.5 367.75 411.91 364.58 414.45C362.707 415.884 361.477 418.002 361.16 420.34Z" fill="white" stroke="#263238" stroke-miterlimit="10"/>
<path d="M299.28 266.33L294.49 291.49C294.49 291.49 286.11 343.94 286.35 345.86C286.59 347.78 296.66 401.96 296.9 404.11C297.14 406.26 294.74 408.42 294.74 408.42L295.22 413.69C295.22 413.69 301.22 417.77 305.28 418.69C308.677 419.353 312.121 419.754 315.58 419.89C315.58 419.89 317.74 415.34 317.74 414.62C317.74 413.9 316.3 409.11 316.3 408.39C316.3 407.67 312.46 344.39 312.46 344.39L321.8 308.22C321.8 308.22 334.5 346.55 335.69 349.22C336.88 351.89 360 410.39 360 410.39C360 410.39 357.85 413.27 358.57 415.39C359.29 417.51 360.24 421.62 360.24 421.62C360.24 421.62 365.51 415.62 368.15 417.55C369.618 418.515 370.714 419.95 371.26 421.62L379.64 418.27C379.64 418.27 380.36 414.91 379.88 413.27C379.4 411.63 378.21 413.75 378.21 407.52C378.21 401.29 369.96 364.06 368.28 358.31C366.6 352.56 359.66 341.79 359.66 341.79L356.54 283.79V270.41L299.28 266.33Z" fill="#263238" stroke="#263238" stroke-miterlimit="10"/>
<path d="M339.57 163.33C339.57 163.33 333.39 161.33 330.88 162.5C328.37 163.67 307.62 185.62 307.34 187C307.06 188.38 296.779 257.28 295.109 262.59C293.439 267.9 302.66 274.59 302.66 274.59L308.25 277.11L313 271.51L312.72 278.23C312.72 278.23 327.27 278.51 331.72 277.95C336.17 277.39 353.53 272.95 353.53 272.95C353.53 272.95 357.17 212.55 357.45 211.43C357.73 210.31 360.549 172 360.549 172L355.23 168.65L339.57 163.33Z" fill="white" stroke="#263238" stroke-miterlimit="10"/>
<path d="M339.49 180.06L343.4 187.88C343.4 187.88 354.76 175.59 356.06 172.61C357.36 169.63 358.48 169.44 357.74 167.61C357.083 166.231 356.201 164.97 355.13 163.88C355.13 163.88 337.81 163.33 335.58 164.44C333.35 165.55 327.2 179.53 326.83 180.44L326.45 181.37L338.19 179.32L339.49 180.06Z" fill="white" stroke="#263238" stroke-miterlimit="10"/>
<path d="M334.219 164.94C334.219 164.94 295.849 200.59 293.859 202.94C291.869 205.29 289.689 213.26 289.689 213.26C289.689 213.26 293.129 198.06 294.399 195.71C295.669 193.36 322.809 165.48 322.809 165.48L330.049 160.41L337.469 162.22L334.219 164.94Z" fill="#ADD5D9" stroke="#263238" stroke-miterlimit="10"/>
<path d="M338.369 116.93C338.369 116.93 330.739 124.93 330.919 126.42C331.006 127.603 330.946 128.792 330.739 129.96C330.739 129.96 322.739 136.48 321.979 136.67C321.219 136.86 321.239 138.16 321.799 139.27C322.359 140.38 323.289 140.58 323.659 141.51C324.029 142.44 323.849 145.05 322.359 150.26C320.869 155.47 320.119 156.26 321.609 157.15C323.099 158.04 333.899 161.81 333.899 161.81C333.899 161.81 334.269 177.45 335.019 179.68C335.769 181.91 339.489 180.06 339.489 180.06L355.129 165.16V162.55L367.419 147.84C367.419 147.84 370.769 135.73 367.049 129.96C363.329 124.19 343.769 115.96 343.209 115.81C342.373 115.586 341.494 115.571 340.65 115.766C339.806 115.962 339.023 116.361 338.369 116.93Z" fill="white" stroke="#263238" stroke-miterlimit="10"/>
<path d="M351.999 112.27C351.999 112.27 355.159 110.41 353.109 109.48C351.55 108.889 349.829 108.889 348.269 109.48C347.709 109.66 348.829 103.89 345.659 105.57C342.489 107.25 338.399 111.34 337.469 114.13C336.539 116.92 339.329 122.33 341.749 122.7C344.398 123.287 347.01 124.031 349.569 124.93C350.015 125.312 350.314 125.837 350.416 126.415C350.518 126.993 350.417 127.588 350.129 128.1C349.199 130.15 343.799 134.24 344.549 135.36C345.299 136.48 347.149 139.09 347.149 139.09C347.149 139.09 345.289 142.44 345.659 143.37C345.971 143.979 346.504 144.444 347.149 144.67C347.149 144.67 350.509 142.67 353.299 143.37C356.089 144.07 354.979 148.77 353.859 150.82C352.739 152.87 351.249 155.29 351.249 155.29C351.249 155.29 354.419 162.55 355.159 162.55C355.899 162.55 365.029 153.43 368.939 149.33C372.849 145.23 374.529 138.16 373.599 132.2C372.669 126.24 362.799 118.2 359.599 116.37C356.399 114.54 351.999 112.27 351.999 112.27Z" fill="#263238" stroke="#263238" stroke-miterlimit="10"/>
<path d="M325.71 133.13C324.03 132.01 325.34 126.8 326.83 126.24C328.32 125.68 330.74 129.96 330.74 129.96C330.74 129.96 338.74 136.11 338.93 137.22C339.12 138.33 334.65 141.69 332.23 141.88C329.81 142.07 328.87 142.07 328.87 138.53C328.843 136.456 329.291 134.404 330.18 132.53" stroke="#263238" stroke-miterlimit="10"/>
<path d="M338.93 137.22L348.99 144.11" stroke="#263238" stroke-miterlimit="10"/>
<path d="M334.09 130C335.198 130.145 336.254 130.561 337.163 131.212C338.071 131.862 338.806 132.727 339.3 133.73" stroke="#263238" stroke-miterlimit="10"/>
<path d="M325.34 146.16C327.679 147.046 330.261 147.046 332.6 146.16" stroke="#263238" stroke-miterlimit="10"/>
<path d="M351.22 155.29C351.22 155.29 347.31 156.22 345.45 155.29" stroke="#263238" stroke-miterlimit="10"/>
<path d="M333.899 161.81L340.979 161.43L334.089 167.95L333.899 161.81Z" fill="#263238" stroke="#263238" stroke-miterlimit="10"/>
<path d="M357.74 167.58C357.74 167.58 354 174 350.34 186.9C346.68 199.8 342.84 238.79 342.84 243.02C342.84 247.25 352.64 298.02 353.41 299.9C354.18 301.78 359 302 359 302C359 302 373.22 292.4 374 289.71C374.78 287.02 365 241.85 365 241.85C365 241.85 382.88 183.43 381.72 182.66C380.56 181.89 357.74 167.58 357.74 167.58Z" fill="#92E3A9" stroke="#263238" stroke-miterlimit="10"/>
<path d="M364.37 174C364.37 174 352.45 221.66 349.57 229.92C348.015 234.601 345.744 239.013 342.84 243" stroke="#263238" stroke-miterlimit="10"/>
<path d="M360.389 293.78C360.389 293.78 358.589 296.55 357.629 297.65C356.669 298.75 354.029 300.01 355.269 300.83C356.509 301.65 359.839 300.14 360.669 298.9L360.389 293.78Z" fill="white" stroke="#263238" stroke-miterlimit="10"/>
<path d="M367.93 283.05C367.93 283.05 360.67 290.05 360.25 290.74C359.83 291.43 359.42 297.24 359.42 298.9C359.386 299.474 359.526 300.044 359.823 300.537C360.119 301.029 360.557 301.421 361.08 301.66C361.628 301.756 362.184 301.803 362.74 301.8L364.54 301.53C365.654 301.46 366.772 301.551 367.86 301.8C369.52 302.22 372.86 302.22 373.67 301.39C374.364 300.507 374.923 299.527 375.33 298.48C375.968 297.678 376.394 296.729 376.57 295.72C376.85 294.06 378.51 285.72 378.51 285.72C378.51 285.72 366.75 281.72 367.93 283.05Z" fill="white" stroke="#263238" stroke-miterlimit="10"/>
<path d="M362.74 301.8L363.99 294.06" stroke="#263238" stroke-miterlimit="10"/>
<path d="M366.34 301.39L367.72 294.75" stroke="#263238" stroke-miterlimit="10"/>
<path d="M370.49 301.66L371.73 295.44" stroke="#263238" stroke-miterlimit="10"/>
<path d="M381.66 182.67C381.66 182.67 401.25 226 403.94 232.73C406.63 239.46 404.52 241.9 403.94 243.62C403.36 245.34 381.19 287.28 381.19 287.28L367.93 283.05L381.59 239.05L371.48 220L381.66 182.67Z" fill="#ADD5D9" stroke="#263238" stroke-miterlimit="10"/>
<path d="M275.29 107.09C275.361 104.28 275.723 101.485 276.37 98.7499C277.31 95.6599 276.64 94.3099 275.96 94.5799C275.28 94.8499 274.49 94.9899 274.08 97.4099C273.749 99.0939 273.568 100.804 273.54 102.52C273.54 104 275.29 107.09 275.29 107.09Z" fill="white" stroke="#263238" stroke-miterlimit="10"/>
<path d="M260.76 91.81C261 91.39 262.53 93.03 263.59 94.01C263.17 93.15 263.06 93.1 262.38 91.62C261.824 90.6448 261.632 89.5034 261.84 88.4C262.2 87 265.08 90.11 265.91 91.73C265.49 90.43 264.6 87.73 264.4 86.92C264.13 85.84 264.27 84.36 265.07 83.83C265.87 83.3 267.07 86.11 267.07 86.11C268.066 86.5801 268.906 87.3263 269.49 88.26L274.06 97.41L274.47 103.86L278.63 119.73L288.32 133.18L277.64 138.36L271.37 123.5C270.291 122.554 269.342 121.467 268.55 120.27C267.67 118.9 266.86 113.82 266.38 109.71C266.017 108.686 265.742 107.632 265.56 106.56C265.16 104.28 264.45 98.91 264.45 98.91C264.45 98.91 262.4 96.46 261.3 94.81C260.999 94.3787 260.794 93.8871 260.701 93.3692C260.608 92.8513 260.628 92.3193 260.76 91.81Z" fill="white" stroke="#263238" stroke-miterlimit="10"/>
<path d="M266.15 92.4299C267.08 93.8778 267.915 95.3843 268.65 96.9399C269.055 98.0203 269.389 99.126 269.65 100.25" stroke="#263238" stroke-miterlimit="10"/>
<path d="M267.09 86.11C267.09 86.11 270.59 94.31 271.39 95.52C272.107 96.9103 272.52 98.4376 272.6 100" stroke="#263238" stroke-miterlimit="10"/>
<path d="M263.59 94C264.66 94.9629 265.64 96.0206 266.52 97.16C266.84 97.87 267.86 101.74 267.86 101.74" stroke="#263238" stroke-miterlimit="10"/>
<path d="M348.31 367.33C348.31 367.33 349.68 386.25 347.8 395.45C345.92 404.65 339.11 418.29 338.43 420.16C337.75 422.03 332 443 332.12 443.85C332.24 444.7 336.38 452.03 335.87 455.6C335.36 459.17 334.51 460.21 332.98 460.55C331.45 460.89 324.11 460.72 319.17 464.81C314.23 468.9 306.9 468.04 304.35 467.87C301.8 467.7 295.15 467.7 294.8 466.34C294.45 464.98 298.38 461.91 300.43 461.06C302.48 460.21 307.93 455.6 309.43 454.06C310.93 452.52 316.76 445.06 317.95 442.13C319.14 439.2 322.55 394.93 323.57 388.13C324.58 381.934 325.095 375.668 325.11 369.39C324.94 367.139 325.229 364.876 325.96 362.74L348.31 367.33Z" fill="white" stroke="#263238" stroke-miterlimit="10"/>
<path d="M300.43 461.06C301.601 460.459 302.707 459.738 303.73 458.91C305.104 459.618 306.578 460.113 308.1 460.38C309.63 460.38 320.88 452.88 324.8 450.66C327.97 448.87 332.49 448.42 334.09 448.31C335.09 450.78 336.14 453.71 335.87 455.6C335.36 459.18 334.51 460.21 332.98 460.55C331.45 460.89 324.11 460.72 319.17 464.81C314.23 468.9 306.9 468.04 304.35 467.87C301.8 467.7 295.15 467.7 294.8 466.34C294.45 464.98 298.38 461.91 300.43 461.06Z" fill="#FF725E" stroke="#263238" stroke-miterlimit="10"/>
<path d="M404.09 362.31C404.09 362.31 410.09 372.72 412.71 382.94C415.33 393.16 414.91 436.83 415.31 437.63C415.71 438.43 419.31 446.85 421.12 450.45C422.93 454.05 427.33 459.45 427.33 461.07C427.33 462.69 424.13 462.67 423.52 462.67H412.52C412.52 462.67 409.52 461.67 408.91 460.47C408.3 459.27 407.91 454.06 406.51 452.47C405.11 450.88 401.7 446.66 401.51 444.47C401.32 442.28 402.71 435.47 402.71 433.85C402.71 432.23 398.3 414.42 396.9 409.85C395.5 405.28 388.49 393.22 387.69 383.2C386.89 373.18 386.08 368.78 386.08 368.78L404.09 362.31Z" fill="white" stroke="#263238" stroke-miterlimit="10"/>
<path d="M411 435.45C413.27 436.11 415.26 438.51 416.38 440.09C417.69 443.09 419.83 447.93 421.09 450.45C422.89 454.06 427.3 459.45 427.3 461.07C427.3 462.69 424.1 462.67 423.49 462.67H412.49C412.49 462.67 409.49 461.67 408.88 460.47C408.27 459.27 407.88 454.06 406.48 452.47C405.08 450.88 401.67 446.66 401.48 444.47C401.528 442.207 401.765 439.953 402.19 437.73C403.324 436.601 404.738 435.795 406.286 435.394C407.835 434.994 409.462 435.013 411 435.45Z" fill="#FF725E" stroke="#263238" stroke-miterlimit="10"/>
<path d="M423.52 462.67H412.52C412.52 462.67 409.52 461.67 408.91 460.47C408.3 459.27 407.91 454.06 406.51 452.47C405.33 451.12 402.73 447.92 401.82 445.63L402.36 445.06C402.36 445.06 407.75 440.72 411.7 443.06C415.65 445.4 416.7 450.95 419.19 453.71C421.68 456.47 425.89 458.52 427.34 461.05C427.33 462.67 424.13 462.67 423.52 462.67Z" fill="#263238" stroke="#263238" stroke-miterlimit="10"/>
<path d="M407.861 201C407.861 201 414.111 235.16 414.291 236.28C414.471 237.4 419.541 254.08 418.791 257.82C418.041 261.56 402.491 293.22 402.491 293.22C402.491 293.22 398.561 286.67 398.001 286.29C397.441 285.91 399.501 254.64 399.501 254.64L393.311 234.64C393.311 234.64 393.311 214.21 395.941 210.29C398.571 206.37 406.801 199 407.861 201Z" fill="#FF725E" stroke="#263238" stroke-miterlimit="10"/>
<path d="M395.3 238.85C395.3 238.85 404.16 236.58 409.1 231.64" stroke="#263238" stroke-miterlimit="10"/>
<path d="M399.42 245.85C399.42 245.85 406.22 250.18 413.22 250.18" stroke="#263238" stroke-miterlimit="10"/>
<path d="M409.751 278.19C405.991 286.08 402.491 293.19 402.491 293.19C402.491 293.19 398.561 286.64 398.001 286.26C397.791 286.13 397.941 281.86 398.201 276.51C399.83 277.737 401.742 278.534 403.761 278.828C405.779 279.121 407.839 278.902 409.751 278.19Z" fill="white" stroke="#263238" stroke-miterlimit="10"/>
<path d="M391.85 259.5L404 290.83C407.41 299.65 407.91 346.68 407.91 346.68L406.91 364.31C406.91 364.31 387.27 373.53 364.84 372.52C350.698 371.775 336.702 369.286 323.17 365.11C323.17 365.11 323.27 324.29 328.27 310.67C333.27 297.05 336.89 283.22 336.89 283.22L338.57 262.11L391.85 259.5Z" fill="#263238" stroke="#263238" stroke-miterlimit="10"/>
<path d="M402.88 212C402.53 212.89 393.88 241.12 393.88 241.12C393.88 241.12 391.82 247.87 391.63 248.62C391.628 252.061 391.814 255.5 392.19 258.92C392.38 259.67 393.75 257.67 393.19 260.29C392.63 262.91 390.19 263.1 388.7 263.85C380.758 266.938 372.312 268.528 363.79 268.54C355.246 268.255 346.733 267.376 338.31 265.91C337.334 264.179 336.52 262.362 335.88 260.48C335.5 258.8 336.56 254.98 336.56 254.98L331.56 214.67C331.56 214.67 310.71 187.11 307.86 185.16C305.01 183.21 301.28 180.35 300.21 179.46C298.91 178.167 297.937 176.584 297.37 174.84C296.65 172.84 277.69 138.34 277.69 138.34C277.69 138.34 282.49 133.18 283.69 132.83C285.043 132.52 286.412 132.283 287.79 132.12L312.45 159.71C312.45 159.71 317.25 162.03 318.32 162.56C319.39 163.09 319.21 166.12 319.21 166.12L326.72 169.48L351.89 177.43L363.89 180.33C363.89 180.33 397.89 193.14 400.02 194.21C402.15 195.28 408.02 199.21 407.84 200.97C407.66 202.73 404.46 210.05 404.46 210.05" fill="#FF725E"/>
<path d="M402.88 212C402.53 212.89 393.88 241.12 393.88 241.12C393.88 241.12 391.82 247.87 391.63 248.62C391.628 252.061 391.814 255.5 392.19 258.92C392.38 259.67 393.75 257.67 393.19 260.29C392.63 262.91 390.19 263.1 388.7 263.85C380.758 266.938 372.312 268.528 363.79 268.54C355.246 268.255 346.733 267.376 338.31 265.91C337.334 264.179 336.52 262.362 335.88 260.48C335.5 258.8 336.56 254.98 336.56 254.98L331.56 214.67C331.56 214.67 310.71 187.11 307.86 185.16C305.01 183.21 301.28 180.35 300.21 179.46C298.91 178.167 297.937 176.584 297.37 174.84C296.65 172.84 277.69 138.34 277.69 138.34C277.69 138.34 282.49 133.18 283.69 132.83C285.043 132.52 286.412 132.283 287.79 132.12L312.45 159.71C312.45 159.71 317.25 162.03 318.32 162.56C319.39 163.09 319.21 166.12 319.21 166.12L326.72 169.48L351.89 177.43L363.89 180.33C363.89 180.33 397.89 193.14 400.02 194.21C402.15 195.28 408.02 199.21 407.84 200.97C407.66 202.73 404.46 210.05 404.46 210.05" stroke="#263238" stroke-miterlimit="10"/>
<path d="M351.271 237.05C356.751 244.39 364.071 253.24 370.271 257.44" stroke="#263238" stroke-miterlimit="10"/>
<path d="M343.12 225.41C343.12 225.41 345.71 229.41 349.56 234.73" stroke="#263238" stroke-miterlimit="10"/>
<path d="M377.16 255.87C378.081 256.508 379.036 257.096 380.02 257.63" stroke="#263238" stroke-miterlimit="10"/>
<path d="M364.28 244.33C367.661 247.937 371.293 251.299 375.15 254.39" stroke="#263238" stroke-miterlimit="10"/>
<path d="M314.77 167C314.77 167 306.59 176.43 306.77 173.58C306.95 170.73 306.05 170.73 308.77 168.58" stroke="#263238" stroke-miterlimit="10"/>
<path d="M363.16 130.27C363.16 130.27 353.16 136.22 352.32 138.14C351.48 140.06 351.05 144.72 349.98 145.79C348.91 146.86 342.76 148.34 342.98 149.79C343.2 151.24 345.53 155.79 345.53 155.79C345.53 155.79 345.11 170.03 345.11 171.09C345.11 172.15 346.38 172.79 347.66 173C348.94 173.21 351.91 174.07 351.91 174.07V177.47C351.91 177.47 360.19 180.23 361.04 180.23C361.89 180.23 367.42 180.65 367.42 180.65C367.42 180.65 378.68 173.22 382.29 162.59C385.9 151.96 382.29 143.68 378.29 138.79C374.29 133.9 363.16 130.27 363.16 130.27Z" fill="white" stroke="#263238" stroke-miterlimit="10"/>
<path d="M364.86 159C364.86 159 371.86 153.26 373.57 157.94C375.28 162.62 373.78 165.16 371.66 166.01C369.54 166.86 364.43 168.56 364.43 168.56C364.43 168.56 359.55 179.82 359.12 184.5C358.69 189.18 355.72 192.79 357.21 195.97C358.7 199.15 360.82 200.44 371.21 201.5C381.6 202.56 393.49 201.03 400.92 197.84C408.35 194.65 407.34 183.44 405.85 180.84C404.36 178.24 397.35 169.36 397.56 164.69C397.77 160.02 404.15 152.81 399.63 139.87C395.63 128.42 376.1 121.34 370.79 121.98C365.48 122.62 360.79 121.98 360.79 125.38C360.552 129.553 361.922 133.658 364.62 136.85C368.23 141.53 366.1 145.14 365.25 145.99C364.4 146.84 361.64 149.6 362.07 152.99C362.417 155.215 363.384 157.298 364.86 159Z" fill="#263238" stroke="#263238" stroke-miterlimit="10"/>
<path d="M352.581 160.22C352.581 160.22 351.841 163.41 346.931 162.43" stroke="#263238" stroke-miterlimit="10"/>
<path d="M355.77 143.28C355.618 142.615 355.244 142.022 354.709 141.599C354.175 141.175 353.512 140.946 352.83 140.95" stroke="#263238" stroke-miterlimit="10"/>
<path d="M351.551 146C351.071 147 350.971 147.91 351.331 148.09C351.691 148.27 352.391 147.63 352.871 146.66C353.351 145.69 353.451 144.75 353.091 144.57C352.731 144.39 352.001 145.05 351.551 146Z" fill="#263238"/>
<path d="M148.61 136.12C148.61 136.12 149.16 135.01 147.51 133.36C145.86 131.71 138.51 127.11 136.29 125.63C134.07 124.15 131.51 119.57 122.68 124.9C113.85 130.23 108 139.8 106.87 146.6C105.74 153.4 110.18 161.68 118.45 166.28C122.996 168.921 127.978 170.726 133.16 171.61L134.08 173.26L160.2 169.4C160.2 169.4 164.43 164.99 163.88 162.4C163.33 159.81 158.73 151.19 158.73 151.19C158.73 151.19 161.67 146.77 160.73 145.49C159.79 144.21 148.61 136.12 148.61 136.12Z" fill="white" stroke="#263238" stroke-miterlimit="10"/>
<path d="M137.76 158.37C137.76 158.37 134.08 159.66 132.61 160.21C131.14 160.76 126.91 159.47 125.07 155.79C123.23 152.11 125.99 148.25 128.01 147.89C130.03 147.53 131.69 148.81 132.8 148.62C133.91 148.43 133.9 147.15 134.08 146.05C134.26 144.95 131.14 142.92 131.14 142.92C131.14 142.92 135.37 138.32 136.47 136.3C137.57 134.28 128.93 132.3 128.57 130.6C128.21 128.9 136.29 125.6 136.29 125.6C134.08 124.13 131.51 119.54 122.68 124.87C113.85 130.2 108 139.8 106.87 146.6C105.74 153.4 110.18 161.68 118.45 166.28C122.382 168.504 126.606 170.163 131 171.21L132.94 170.14C132.94 170.14 133.86 169.04 136.07 165.72C137.42 163.52 138.013 160.939 137.76 158.37Z" fill="#263238" stroke="#263238" stroke-miterlimit="10"/>
<path d="M147.321 135.38C147.321 135.38 144.931 135.01 143.091 138.32" stroke="#263238" stroke-miterlimit="10"/>
<path d="M158.73 154.87C158.73 154.87 155.23 156.35 150.63 152.3" stroke="#263238" stroke-miterlimit="10"/>
<path d="M148.31 140.77C148.95 142.04 149.03 143.29 148.48 143.57C147.93 143.85 146.98 143.03 146.34 141.76C145.7 140.49 145.62 139.24 146.17 138.97C146.72 138.7 147.67 139.5 148.31 140.77Z" fill="#263238"/>
<path d="M156.341 171.06C156.341 171.06 134.451 169.22 133.161 171.61C131.871 174 132.061 178.78 132.061 178.78L156.151 173.26L156.341 171.06Z" fill="#FF9A6C" stroke="#263238" stroke-miterlimit="10"/>
<path d="M192 160.73C192 160.73 236.72 111.91 237 111.21C237.28 110.51 238.63 94.73 238.76 93.63C238.89 92.53 238.54 90.83 239.86 89.14C241.18 87.45 243.69 83.49 243.69 83.49C244.487 81.7789 245.371 80.11 246.34 78.49C247 77.64 248.64 76.36 249.7 75.19C250.76 74.02 252.36 73.1 253.21 73.76C254.06 74.42 254.46 77.18 254.46 77.18C254.46 77.18 255.57 77.18 255.92 78.9C256.27 80.62 253.52 89.54 253.41 90.46C253.3 91.38 252.47 99.79 251.49 104.86C250.51 109.93 248.96 113.44 247.44 115.3C245.92 117.16 229.73 140.75 225.66 145.3C221.59 149.85 205.51 177.82 205.51 177.82L192 160.73Z" fill="white" stroke="#263238" stroke-miterlimit="10"/>
<path d="M242.54 85.5C242.54 85.5 240.3 91.74 240.2 92.6C240.1 93.46 239.53 98.16 239.53 98.16" stroke="#263238" stroke-miterlimit="10"/>
<path d="M247.4 77.5801C247.4 77.5801 244.51 85.6501 244.19 86.9201C243.87 88.1901 243.57 89.9201 243.57 89.9201" stroke="#263238" stroke-miterlimit="10"/>
<path d="M254.4 77.13C253.785 79.0792 253.061 80.9923 252.23 82.86C251.156 85.6032 250.32 88.4336 249.73 91.32" stroke="#263238" stroke-miterlimit="10"/>
<path d="M251.46 74.17C251.46 74.17 248.07 82.79 247.59 84.64C247.11 86.49 246.45 89.71 246.23 90.11" stroke="#263238" stroke-miterlimit="10"/>
<path d="M180.11 191.04L207.33 266.06L201.21 274.62L194.78 262.6L189.72 236.98L180.11 191.04Z" fill="#263238" stroke="#263238" stroke-miterlimit="10"/>
<path d="M121.39 246.37C121.39 246.37 118.69 257.18 120.56 258.63C122.43 260.08 139.47 265.28 139.89 264.63C140.31 263.98 140.09 257.15 139.68 255.28C139.27 253.41 136.15 250.92 136.15 250.92L121.39 246.37Z" fill="white" stroke="#263238" stroke-miterlimit="10"/>
<path d="M126.171 215C126.171 215 120.771 242.43 121.171 243.47C121.571 244.51 135.501 246.17 135.501 246.17L126.171 215Z" fill="#FF9A6C" stroke="#263238" stroke-miterlimit="10"/>
<path d="M120.151 238.27C120.151 238.27 118.481 247 120.561 248.04C122.641 249.08 135.111 252.4 136.151 250.95C137.191 249.5 135.731 243.26 135.731 243.26C135.731 243.26 121.191 236.61 120.151 238.27Z" fill="#FF9A6C" stroke="#263238" stroke-miterlimit="10"/>
<path d="M178.001 443.14C178.001 443.14 184.771 448.21 186.701 448.7C188.631 449.19 195.401 451.35 196.121 452.56C196.841 453.77 196.121 457.64 195.121 459.09C194.121 460.54 180.391 462.71 173.861 461.99C167.331 461.27 153.081 464.64 151.631 460.05C150.181 455.46 152.631 448.7 152.631 448.7C152.631 448.7 173.681 444.11 178.001 443.14Z" fill="white" stroke="#263238" stroke-miterlimit="10"/>
<path d="M191.081 457.88C188.421 458.6 177.791 459.09 165.221 459.57C157.221 459.88 153.151 458.33 151.221 457.16C151.245 458.139 151.397 459.11 151.671 460.05C153.121 464.64 167.381 461.26 173.901 461.99C180.421 462.72 194.201 460.54 195.161 459.09C195.636 458.299 195.974 457.434 196.161 456.53L191.081 457.88Z" fill="white" stroke="#263238" stroke-miterlimit="10"/>
<path d="M89.3603 428.64C89.3603 428.64 83.5603 440.72 84.5203 443.38C85.4803 446.04 88.3904 446.52 91.0504 447.49C93.7104 448.46 100.47 448.21 102.4 449.42C104.33 450.63 113.52 454.74 117.87 455.42C122.22 456.1 126.81 454.21 127.29 452.28C127.77 450.35 120.29 444.55 117.38 442.62C114.47 440.69 109.89 433.92 109.89 433.92L89.3603 428.64Z" fill="white" stroke="#263238" stroke-miterlimit="10"/>
<path d="M99.0005 446.28C94.0811 444.906 89.2683 443.174 84.6005 441.1C84.3933 441.843 84.3659 442.624 84.5205 443.38C85.5205 446.04 88.3906 446.52 91.0506 447.49C93.7106 448.46 100.471 448.21 102.401 449.42C104.331 450.63 113.521 454.74 117.871 455.42C122.221 456.1 126.811 454.21 127.291 452.28C127.313 451.705 127.108 451.145 126.721 450.72C124.721 451.95 121.951 453.35 119.801 453.49C115.931 453.77 105.061 447.73 99.0005 446.28Z" fill="white" stroke="#263238" stroke-miterlimit="10"/>
<path d="M137.21 275.51C137.21 275.51 131.88 296.02 131.64 301.82C131.511 305.685 131.591 309.554 131.88 313.41C131.88 313.41 128.02 316.31 128.74 318.73C129.174 320.189 129.825 321.574 130.67 322.84C130.67 322.84 121.49 357.84 120.28 359.56C119.07 361.28 106.28 381.07 102.89 387.83C99.5001 394.59 91.5301 422.83 91.5301 422.83C90.5956 423.767 89.9291 424.938 89.6001 426.22C89.3601 427.91 88.8701 430.81 88.8701 430.81C89.9201 432.555 91.3625 434.031 93.0828 435.121C94.803 436.212 96.7538 436.886 98.7801 437.09C106.03 438.09 109.89 436.61 109.89 436.61C110.711 435.359 111.287 433.965 111.59 432.5C112.07 430.08 112.79 426.22 112.79 426.22L126.32 402.78L148.79 361.49L155.56 342.16C155.56 342.16 158.7 370.67 158.46 371.88C158.22 373.09 151.94 394.81 151.94 405.44C151.94 416.07 152.66 438.3 152.66 438.3C152.66 438.3 150.73 441.68 151.21 443.61L151.69 445.55L152.69 448.69C152.69 448.69 162.11 448.44 166.46 447.69C170.81 446.94 178.06 443.1 178.06 443.1C178.06 443.1 178.78 439.72 178.06 438.51C177.229 437.409 176.578 436.184 176.13 434.88C175.506 432.43 175.425 429.874 175.89 427.39C176.61 424.01 184.1 373.3 187 360.49C189.9 347.68 190.62 306.37 190.38 298.88C190.263 294.588 189.859 290.308 189.17 286.07L189.66 277.37C189.66 277.37 176.13 271.57 164.53 270.85C152.93 270.13 138.92 272.3 138.92 272.3L137.21 275.51Z" fill="#263238" stroke="#263238" stroke-miterlimit="10"/>
<path d="M141.79 314.62L150.73 329.12L154.59 340.48" stroke="#8F8F8F" stroke-miterlimit="10"/>
<path d="M158.351 314.24C160.041 312.74 161.711 311.13 162.351 310.51C163.561 309.31 165.251 292.64 165.501 291.91" stroke="#8F8F8F" stroke-miterlimit="10"/>
<path d="M140.58 294.08C140.58 294.08 140.58 306.65 142.03 309.31C143.48 311.97 152.9 317.76 154.35 317.31" stroke="#8F8F8F" stroke-miterlimit="10"/>
<path d="M143.24 288.53C143.24 288.53 156.24 286.35 164.74 289.25" stroke="#263238" stroke-miterlimit="10"/>
<path d="M175.52 352.72C175.84 359.81 176.13 369.79 175.37 372.37C174.657 374.688 173.768 376.948 172.71 379.13C171.99 381.07 172.96 383.24 172.47 384.45C171.98 385.66 170.54 406.9 169.33 412.45C168.12 418 167.88 430.09 167.88 430.09" stroke="#8F8F8F" stroke-miterlimit="10"/>
<path d="M179.721 281C179.721 281 178.031 302.26 177.301 309C176.571 315.74 174.161 326.15 174.411 330.5C174.661 334.85 175.131 345.24 175.131 345.24C175.131 345.24 175.191 346.17 175.271 347.7" stroke="#8F8F8F" stroke-miterlimit="10"/>
<path d="M168.371 433.23V438.79C168.628 438.848 168.87 438.958 169.083 439.113C169.297 439.267 169.476 439.464 169.611 439.69C169.746 439.917 169.833 440.168 169.867 440.43C169.902 440.691 169.882 440.956 169.811 441.21C169.407 442.512 168.657 443.681 167.641 444.59" stroke="#263238" stroke-miterlimit="10"/>
<path d="M132.061 178.78C132.061 178.78 124.151 187.43 122.131 197.36C120.111 207.29 126.911 220.71 126.911 220.71L138.311 262.82C138.311 262.82 135.001 265.4 134.821 267.61C134.641 269.82 135.551 274.96 137.211 275.51C138.871 276.06 164.611 275.88 164.611 275.88C164.611 275.88 190.171 280.48 190.721 280.48C191.271 280.48 194.221 277.9 194.221 274.96C194.221 272.02 193.671 267.79 193.481 265.96C193.291 264.13 185.941 215.76 185.211 212.45C184.481 209.14 184.211 196.06 184.211 196.06L199.611 184.63L202.251 181.25L190.471 162.25C190.471 162.25 171.601 166.87 170.681 167.6C169.761 168.33 132.061 178.78 132.061 178.78Z" fill="#FF9A6C" stroke="#263238" stroke-miterlimit="10"/>
<path d="M186.12 164.47C186.12 164.47 198.57 187.09 199.33 187C200.09 186.91 206.99 181.81 207.49 180.76C207.99 179.71 207.16 177.39 207.16 177.39C207.16 177.39 194.16 160.44 193.04 159.39C192.852 159.177 192.622 159.007 192.363 158.89C192.104 158.773 191.824 158.713 191.54 158.713C191.256 158.713 190.976 158.773 190.717 158.89C190.459 159.007 190.228 159.177 190.04 159.39C189.62 160.07 185.29 160.66 186.12 164.47Z" fill="#FF9A6C" stroke="#263238" stroke-miterlimit="10"/>
<path d="M184.21 196.05L159.99 214.13" stroke="#263238" stroke-miterlimit="10"/>
<path d="M155.871 241.3C154.71 243.352 153.42 245.33 152.011 247.22" stroke="#263238" stroke-miterlimit="10"/>
<path d="M168.33 212C165.62 221.108 161.991 229.916 157.5 238.29" stroke="#263238" stroke-miterlimit="10"/>
<path d="M159.55 242.19C159.55 242.19 150.61 255.61 146.41 259.24" stroke="#263238" stroke-miterlimit="10"/>
</svg>
