<svg width="26" height="24" viewBox="0 0 26 24" fill="none" xmlns="http://www.w3.org/2000/svg">
<path d="M22.841 5.98121C22.8573 6.24433 22.8574 6.50595 22.8574 6.76757C22.8574 14.7741 17.7456 24 8.40357 24C5.52543 24 2.85161 23.0061 0.601562 21.28C1.0102 21.3357 1.40371 21.3552 1.82875 21.3552C4.20366 21.3552 6.38938 20.3989 8.13619 18.7676C5.90254 18.7119 4.03087 16.9678 3.38511 14.5681C3.69916 14.6237 4.01447 14.6613 4.34491 14.6613C4.80022 14.6613 5.25805 14.5861 5.68309 14.4553C3.35358 13.893 1.60929 11.4557 1.60929 8.51171V8.43654C2.28658 8.8861 3.07233 9.16727 3.90474 9.20486C2.5363 8.11928 1.63956 6.26237 1.63956 4.16188C1.63956 3.03721 1.89055 2.00576 2.33072 1.10663C4.83175 4.77985 8.5915 7.18106 12.8066 7.44418C12.7284 6.99311 12.6804 6.5255 12.6804 6.05638C12.6804 2.71846 14.9456 0 17.7607 0C19.2237 0 20.5442 0.730735 21.4725 1.91254C22.6202 1.64942 23.72 1.14271 24.6962 0.449568C24.3191 1.85541 23.5157 3.03721 22.4626 3.7875C23.4854 3.65518 24.4768 3.31838 25.3874 2.84927C24.6962 4.04912 23.8323 5.11816 22.841 5.98121Z" fill="#353C4B" fill-opacity="0.4"/>
</svg>
