<svg width="179" height="52" viewBox="0 0 179 52" fill="none" xmlns="http://www.w3.org/2000/svg">
<path d="M178.123 46.7875C178.123 49.6673 175.832 52 172.997 52H5.25548C2.42255 52 0.123047 49.6673 0.123047 46.7875V5.21933C0.123047 2.34087 2.42255 0 5.25548 0H172.996C175.832 0 178.122 2.34087 178.122 5.21933L178.123 46.7875Z" fill="#353C4B" fill-opacity="0.4"/>
<path d="M39.2935 25.7081C39.2548 21.3539 42.8122 19.2356 42.9748 19.137C40.9602 16.1608 37.8375 15.7541 36.7402 15.7217C34.1175 15.442 31.5735 17.3118 30.2375 17.3118C28.8748 17.3118 26.8175 15.7487 24.6002 15.7947C21.7468 15.8392 19.0775 17.5131 17.6135 20.1124C14.5922 25.4123 16.8455 33.2007 19.7402 37.4846C21.1882 39.5827 22.8802 41.9253 25.0948 41.8429C27.2615 41.7524 28.0708 40.4433 30.6855 40.4433C33.2762 40.4433 34.0362 41.8429 36.2948 41.7902C38.6202 41.7524 40.0842 39.6827 41.4815 37.5657C43.1548 35.161 43.8268 32.7927 43.8535 32.6711C43.7988 32.6522 39.3375 30.927 39.2935 25.7081Z" fill="white"/>
<path d="M35.0268 12.9036C36.1922 11.4269 36.9895 9.41802 36.7682 7.37939C35.0815 7.45505 32.9722 8.5615 31.7575 10.0057C30.6828 11.2783 29.7228 13.3642 29.9708 15.3259C31.8655 15.4691 33.8108 14.3572 35.0268 12.9036Z" fill="white"/>
<path d="M70.6499 41.5415H67.6219L65.9633 36.2605H60.1979L58.6179 41.5415H55.6699L61.3819 23.5627H64.9099L70.6499 41.5415ZM65.4633 34.0449L63.9633 29.3503C63.8046 28.8707 63.5073 27.7413 63.0686 25.9634H63.0153C62.8406 26.728 62.5593 27.8575 62.1726 29.3503L60.6993 34.0449H65.4633Z" fill="white"/>
<path d="M85.3389 34.9002C85.3389 37.105 84.7509 38.8478 83.5749 40.1271C82.5216 41.266 81.2136 41.8348 79.6522 41.8348C77.9669 41.8348 76.7562 41.2214 76.0189 39.9947H75.9656V46.8239H73.1229V32.8454C73.1229 31.4592 73.0869 30.0367 73.0176 28.5776H75.5176L75.6762 30.6324H75.7296C76.6776 29.0842 78.1162 28.3115 80.0469 28.3115C81.5562 28.3115 82.8162 28.9153 83.8242 30.1245C84.8349 31.335 85.3389 32.9264 85.3389 34.9002ZM82.4429 35.0056C82.4429 33.7438 82.1629 32.7035 81.6002 31.8848C80.9856 31.031 80.1602 30.6041 79.1256 30.6041C78.4242 30.6041 77.7869 30.8418 77.2176 31.3106C76.6469 31.7835 76.2736 32.4009 76.0989 33.1655C76.0109 33.5222 75.9669 33.814 75.9669 34.0437V36.2052C75.9669 37.1482 76.2522 37.944 76.8229 38.5938C77.3936 39.2436 78.1349 39.5678 79.0469 39.5678C80.1176 39.5678 80.9509 39.149 81.5469 38.3141C82.1442 37.4779 82.4429 36.3755 82.4429 35.0056Z" fill="white"/>
<path d="M100.055 34.9002C100.055 37.105 99.4674 38.8478 98.29 40.1271C97.238 41.266 95.93 41.8348 94.3687 41.8348C92.6834 41.8348 91.4727 41.2214 90.7367 39.9947H90.6834V46.8239H87.8407V32.8454C87.8407 31.4592 87.8047 30.0367 87.7354 28.5776H90.2354L90.394 30.6324H90.4473C91.394 29.0842 92.8327 28.3115 94.7647 28.3115C96.2727 28.3115 97.5327 28.9153 98.5434 30.1245C99.55 31.335 100.055 32.9264 100.055 34.9002ZM97.1594 35.0056C97.1594 33.7438 96.878 32.7035 96.3154 31.8848C95.7007 31.031 94.878 30.6041 93.842 30.6041C93.1394 30.6041 92.5034 30.8418 91.9327 31.3106C91.362 31.7835 90.99 32.4009 90.8153 33.1655C90.7287 33.5222 90.6834 33.814 90.6834 34.0437V36.2052C90.6834 37.1482 90.9687 37.944 91.5367 38.5938C92.1073 39.2422 92.8487 39.5678 93.7634 39.5678C94.834 39.5678 95.6674 39.149 96.2634 38.3141C96.8607 37.4779 97.1594 36.3755 97.1594 35.0056Z" fill="white"/>
<path d="M116.509 36.4998C116.509 38.0291 115.985 39.2734 114.933 40.2339C113.777 41.2836 112.168 41.8078 110.1 41.8078C108.19 41.8078 106.66 41.4349 105.501 40.6878L106.16 38.2872C107.408 39.0518 108.777 39.4355 110.269 39.4355C111.34 39.4355 112.173 39.1896 112.772 38.7006C113.368 38.2115 113.665 37.5549 113.665 36.7362C113.665 36.0067 113.42 35.392 112.928 34.8935C112.438 34.395 111.621 33.9316 110.48 33.5033C107.373 32.3293 105.821 30.6095 105.821 28.348C105.821 26.87 106.365 25.6582 107.454 24.7152C108.54 23.7709 109.988 23.2994 111.798 23.2994C113.413 23.2994 114.754 23.5844 115.825 24.1532L115.114 26.5012C114.114 25.95 112.984 25.6744 111.718 25.6744C110.718 25.6744 109.937 25.9243 109.377 26.4215C108.904 26.866 108.666 27.4077 108.666 28.0494C108.666 28.76 108.937 29.3477 109.481 29.8098C109.954 30.2367 110.814 30.6987 112.062 31.1972C113.589 31.82 114.71 32.5482 115.432 33.3831C116.15 34.2153 116.509 35.2569 116.509 36.4998Z" fill="white"/>
<path d="M125.907 30.7392H122.774V37.0334C122.774 38.6343 123.326 39.4341 124.433 39.4341C124.941 39.4341 125.362 39.3895 125.695 39.3003L125.774 41.4876C125.214 41.6997 124.477 41.8064 123.563 41.8064C122.441 41.8064 121.563 41.4592 120.93 40.7662C120.299 40.0717 119.982 38.9072 119.982 37.2712V30.7365H118.115V28.5749H119.982V26.2012L122.774 25.3474V28.5749H125.907V30.7392Z" fill="white"/>
<path d="M140.045 34.9529C140.045 36.9456 139.482 38.5817 138.359 39.861C137.182 41.1783 135.619 41.8348 133.671 41.8348C131.794 41.8348 130.299 41.2039 129.185 39.9421C128.07 38.6803 127.513 37.0875 127.513 35.1677C127.513 33.1588 128.086 31.5133 129.237 30.234C130.385 28.9532 131.934 28.3129 133.882 28.3129C135.759 28.3129 137.27 28.9438 138.41 30.2069C139.501 31.4323 140.045 33.0143 140.045 34.9529ZM137.095 35.0462C137.095 33.8505 136.843 32.8251 136.333 31.97C135.737 30.9351 134.885 30.419 133.781 30.419C132.638 30.419 131.77 30.9365 131.174 31.97C130.663 32.8265 130.411 33.8681 130.411 35.1002C130.411 36.2958 130.663 37.3212 131.174 38.175C131.789 39.2099 132.647 39.7259 133.755 39.7259C134.841 39.7259 135.693 39.1991 136.307 38.148C136.831 37.2766 137.095 36.2404 137.095 35.0462Z" fill="white"/>
<path d="M149.285 31.1107C149.003 31.058 148.703 31.031 148.389 31.031C147.389 31.031 146.615 31.4133 146.071 32.1793C145.598 32.8548 145.361 33.7086 145.361 34.7394V41.5416H142.519L142.546 32.6603C142.546 31.1661 142.51 29.8056 142.439 28.579H144.915L145.019 31.0594H145.098C145.398 30.2069 145.871 29.5206 146.519 29.0059C147.153 28.5425 147.837 28.3115 148.574 28.3115C148.837 28.3115 149.074 28.3304 149.285 28.3642V31.1107Z" fill="white"/>
<path d="M161.998 34.4462C161.998 34.9623 161.964 35.3973 161.894 35.7526H153.366C153.399 37.0334 153.811 38.0128 154.603 38.6883C155.322 39.2922 156.251 39.5948 157.392 39.5948C158.655 39.5948 159.807 39.3908 160.843 38.9815L161.288 40.9809C160.078 41.5159 158.648 41.782 156.999 41.782C155.015 41.782 153.458 41.1903 152.324 40.0082C151.194 38.8261 150.627 37.2387 150.627 35.2474C150.627 33.2925 151.154 31.6646 152.208 30.3663C153.312 28.9802 154.804 28.2871 156.682 28.2871C158.526 28.2871 159.922 28.9802 160.87 30.3663C161.62 31.4673 161.998 32.8291 161.998 34.4462ZM159.287 33.6991C159.306 32.8453 159.12 32.1077 158.735 31.4849C158.243 30.6837 157.487 30.2839 156.47 30.2839C155.54 30.2839 154.784 30.6743 154.207 31.4579C153.734 32.0807 153.452 32.8278 153.366 33.6978H159.287V33.6991Z" fill="white"/>
<path d="M64.5228 12.5023C64.5228 14.0924 64.0521 15.2894 63.1121 16.0932C62.2414 16.8349 61.0041 17.2064 59.4014 17.2064C58.6068 17.2064 57.9268 17.1713 57.3574 17.101V8.41286C58.1001 8.29127 58.9001 8.22913 59.7641 8.22913C61.2908 8.22913 62.4414 8.56552 63.2174 9.23831C64.0868 9.99891 64.5228 11.0864 64.5228 12.5023ZM63.0494 12.5415C63.0494 11.5107 62.7801 10.7203 62.2414 10.1691C61.7028 9.61928 60.9161 9.34368 59.8801 9.34368C59.4401 9.34368 59.0654 9.37341 58.7548 9.43555V16.0405C58.9268 16.0675 59.2414 16.0797 59.6988 16.0797C60.7681 16.0797 61.5934 15.7784 62.1748 15.1759C62.7561 14.5733 63.0494 13.6952 63.0494 12.5415Z" fill="white"/>
<path d="M72.3347 13.8911C72.3347 14.8706 72.0587 15.6731 71.5067 16.3026C70.928 16.9498 70.1614 17.2727 69.204 17.2727C68.2814 17.2727 67.5467 16.9633 66.9987 16.3418C66.452 15.7217 66.1787 14.9395 66.1787 13.9965C66.1787 13.0103 66.46 12.2011 67.0254 11.5729C67.5907 10.9447 68.3507 10.6299 69.308 10.6299C70.2307 10.6299 70.972 10.9393 71.5334 11.5594C72.0667 12.1619 72.3347 12.9401 72.3347 13.8911ZM70.8854 13.9371C70.8854 13.3494 70.76 12.8455 70.5107 12.4253C70.2174 11.9174 69.8 11.6634 69.2574 11.6634C68.696 11.6634 68.2694 11.9174 67.976 12.4253C67.7254 12.8455 67.6014 13.3575 67.6014 13.9628C67.6014 14.5504 67.7267 15.0543 67.976 15.4745C68.2787 15.9825 68.7 16.2364 69.244 16.2364C69.7774 16.2364 70.196 15.9784 70.4974 15.461C70.756 15.0327 70.8854 14.5248 70.8854 13.9371Z" fill="white"/>
<path d="M82.8098 10.7595L80.8431 17.128H79.5631L78.7485 14.3626C78.5418 13.6722 78.3738 12.9859 78.2431 12.305H78.2178C78.0965 13.0049 77.9285 13.6898 77.7125 14.3626L76.8471 17.128H75.5525L73.7031 10.7595H75.1391L75.8498 13.7871C76.0218 14.5031 76.1631 15.1853 76.2765 15.8311H76.3018C76.4058 15.2988 76.5778 14.6206 76.8205 13.8006L77.7125 10.7609H78.8511L79.7058 13.7357C79.9125 14.4612 80.0805 15.1597 80.2098 15.8325H80.2485C80.3431 15.1772 80.4858 14.4788 80.6751 13.7357L81.4378 10.7609H82.8098V10.7595Z" fill="white"/>
<path d="M90.0533 17.1281H88.6559V13.4805C88.6559 12.3565 88.2346 11.7945 87.3893 11.7945C86.9746 11.7945 86.6399 11.9485 86.3799 12.2578C86.1226 12.5672 85.9919 12.932 85.9919 13.3494V17.1268H84.5946V12.5794C84.5946 12.0201 84.5773 11.4135 84.5439 10.7569H85.7719L85.8373 11.7526H85.8759C86.0386 11.4432 86.2813 11.1879 86.5999 10.9839C86.9786 10.7461 87.4026 10.6259 87.8666 10.6259C88.4533 10.6259 88.9413 10.8177 89.3293 11.2027C89.8119 11.6742 90.0533 12.3781 90.0533 13.313V17.1281Z" fill="white"/>
<path d="M93.9067 17.1281H92.5107V7.8374H93.9067V17.1281Z" fill="white"/>
<path d="M102.134 13.8911C102.134 14.8706 101.858 15.6731 101.306 16.3026C100.727 16.9498 99.9589 17.2727 99.0029 17.2727C98.0789 17.2727 97.3442 16.9633 96.7975 16.3418C96.2509 15.7217 95.9775 14.9395 95.9775 13.9965C95.9775 13.0103 96.2589 12.2011 96.8242 11.5729C97.3895 10.9447 98.1495 10.6299 99.1055 10.6299C100.03 10.6299 100.77 10.9393 101.332 11.5594C101.866 12.1619 102.134 12.9401 102.134 13.8911ZM100.683 13.9371C100.683 13.3494 100.558 12.8455 100.308 12.4253C100.016 11.9174 99.5975 11.6634 99.0562 11.6634C98.4935 11.6634 98.0669 11.9174 97.7749 12.4253C97.5242 12.8455 97.4002 13.3575 97.4002 13.9628C97.4002 14.5504 97.5255 15.0543 97.7749 15.4745C98.0775 15.9825 98.4989 16.2364 99.0429 16.2364C99.5762 16.2364 99.9935 15.9784 100.295 15.461C100.555 15.0327 100.683 14.5248 100.683 13.9371Z" fill="white"/>
<path d="M108.896 17.1281H107.642L107.538 16.3945H107.499C107.07 16.9795 106.458 17.2727 105.663 17.2727C105.07 17.2727 104.59 17.0795 104.228 16.6958C103.9 16.3472 103.736 15.9136 103.736 15.3988C103.736 14.6207 104.056 14.0276 104.7 13.6169C105.343 13.2062 106.247 13.0049 107.411 13.0144V12.8955C107.411 12.0565 106.976 11.6377 106.106 11.6377C105.486 11.6377 104.939 11.7958 104.467 12.1092L104.183 11.1797C104.767 10.8136 105.488 10.6299 106.339 10.6299C107.982 10.6299 108.806 11.508 108.806 13.2643V15.6096C108.806 16.2459 108.836 16.7525 108.896 17.1281ZM107.446 14.9395V13.9573C105.904 13.9303 105.134 14.3586 105.134 15.2408C105.134 15.5731 105.222 15.8217 105.402 15.9879C105.582 16.154 105.811 16.2364 106.084 16.2364C106.391 16.2364 106.678 16.1378 106.939 15.9419C107.202 15.7447 107.363 15.4948 107.423 15.1881C107.438 15.1192 107.446 15.0354 107.446 14.9395Z" fill="white"/>
<path d="M116.836 17.1281H115.596L115.531 16.1054H115.492C115.096 16.8836 114.421 17.2726 113.473 17.2726C112.716 17.2726 112.085 16.9714 111.585 16.3688C111.085 15.7663 110.836 14.9841 110.836 14.0235C110.836 12.9927 111.107 12.1578 111.651 11.5202C112.177 10.9257 112.823 10.6285 113.591 10.6285C114.435 10.6285 115.025 10.9163 115.361 11.4932H115.388V7.8374H116.787V15.4124C116.787 16.0324 116.803 16.6039 116.836 17.1281ZM115.388 14.4423V13.3805C115.388 13.1967 115.375 13.0481 115.349 12.9347C115.271 12.5942 115.101 12.3078 114.844 12.0768C114.584 11.8458 114.271 11.7296 113.909 11.7296C113.388 11.7296 112.98 11.939 112.68 12.3591C112.383 12.7793 112.232 13.3156 112.232 13.9709C112.232 14.6004 112.375 15.1111 112.661 15.5042C112.964 15.923 113.372 16.1324 113.883 16.1324C114.341 16.1324 114.708 15.9581 114.987 15.6082C115.256 15.2854 115.388 14.8963 115.388 14.4423Z" fill="white"/>
<path d="M128.787 13.8911C128.787 14.8706 128.511 15.6731 127.959 16.3026C127.38 16.9498 126.615 17.2727 125.656 17.2727C124.735 17.2727 124 16.9633 123.451 16.3418C122.904 15.7217 122.631 14.9395 122.631 13.9965C122.631 13.0103 122.912 12.2011 123.478 11.5729C124.043 10.9447 124.803 10.6299 125.762 10.6299C126.683 10.6299 127.426 10.9393 127.986 11.5594C128.519 12.1619 128.787 12.9401 128.787 13.8911ZM127.339 13.9371C127.339 13.3494 127.214 12.8455 126.964 12.4253C126.67 11.9174 126.254 11.6634 125.71 11.6634C125.15 11.6634 124.723 11.9174 124.428 12.4253C124.178 12.8455 124.054 13.3575 124.054 13.9628C124.054 14.5504 124.179 15.0543 124.428 15.4745C124.731 15.9825 125.152 16.2364 125.696 16.2364C126.23 16.2364 126.65 15.9784 126.951 15.461C127.208 15.0327 127.339 14.5248 127.339 13.9371Z" fill="white"/>
<path d="M136.3 17.1281H134.904V13.4805C134.904 12.3565 134.483 11.7945 133.636 11.7945C133.221 11.7945 132.887 11.9485 132.628 12.2578C132.369 12.5672 132.24 12.932 132.24 13.3494V17.1268H130.841V12.5794C130.841 12.0201 130.825 11.4135 130.792 10.7569H132.019L132.084 11.7526H132.123C132.287 11.4432 132.529 11.1879 132.847 10.9839C133.227 10.7461 133.649 10.6259 134.115 10.6259C134.7 10.6259 135.188 10.8177 135.576 11.2027C136.06 11.6742 136.3 12.3781 136.3 13.313V17.1281Z" fill="white"/>
<path d="M145.704 11.8202H144.165V14.9139C144.165 15.7002 144.439 16.0933 144.98 16.0933C145.231 16.0933 145.439 16.0717 145.603 16.0271L145.639 17.1011C145.363 17.2065 145 17.2592 144.553 17.2592C144.001 17.2592 143.572 17.089 143.261 16.7485C142.949 16.4081 142.795 15.8353 142.795 15.0314V11.8202H141.876V10.7596H142.795V9.59239L144.164 9.17358V10.7583H145.703V11.8202H145.704Z" fill="white"/>
<path d="M153.101 17.1281H151.703V13.5075C151.703 12.3659 151.281 11.7944 150.437 11.7944C149.789 11.7944 149.347 12.1254 149.104 12.7874C149.063 12.9265 149.039 13.0968 149.039 13.2967V17.1267H147.643V7.8374H149.039V11.6755H149.065C149.505 10.9771 150.136 10.6285 150.953 10.6285C151.532 10.6285 152.011 10.8204 152.391 11.2054C152.864 11.685 153.101 12.3983 153.101 13.3413V17.1281Z" fill="white"/>
<path d="M160.733 13.6426C160.733 13.8966 160.714 14.11 160.681 14.2843H156.49C156.509 14.9139 156.709 15.3935 157.097 15.7258C157.451 16.023 157.909 16.1716 158.469 16.1716C159.089 16.1716 159.654 16.0716 160.163 15.8703L160.382 16.8539C159.786 17.116 159.085 17.247 158.273 17.247C157.299 17.247 156.533 16.9565 155.978 16.3756C155.421 15.7947 155.145 15.0152 155.145 14.0371C155.145 13.0765 155.402 12.2767 155.921 11.6391C156.462 10.9582 157.194 10.6177 158.118 10.6177C159.022 10.6177 159.709 10.9582 160.173 11.6391C160.547 12.1795 160.733 12.8482 160.733 13.6426ZM159.399 13.2765C159.41 12.8563 159.318 12.4942 159.129 12.1889C158.886 11.7958 158.517 11.5985 158.017 11.5985C157.561 11.5985 157.189 11.7904 156.905 12.1754C156.673 12.4821 156.535 12.8482 156.49 13.2765H159.399Z" fill="white"/>
</svg>
