<svg width="45" height="45" viewBox="0 0 45 45" fill="none" xmlns="http://www.w3.org/2000/svg">
<g clip-path="url(#clip0_459_2735)">
<path fill-rule="evenodd" clip-rule="evenodd" d="M30.9375 42.1875C33.9212 42.1875 36.7827 41.0022 38.8925 38.8925C41.0022 36.7827 42.1875 33.9212 42.1875 30.9375C42.1875 27.9538 41.0022 25.0923 38.8925 22.9825C36.7827 20.8728 33.9212 19.6875 30.9375 19.6875C27.9538 19.6875 25.0923 20.8728 22.9825 22.9825C20.8728 25.0923 19.6875 27.9538 19.6875 30.9375C19.6875 33.9212 20.8728 36.7827 22.9825 38.8925C25.0923 41.0022 27.9538 42.1875 30.9375 42.1875ZM45 30.9375C45 34.6671 43.5184 38.244 40.8812 40.8812C38.244 43.5184 34.6671 45 30.9375 45C27.2079 45 23.631 43.5184 20.9938 40.8812C18.3566 38.244 16.875 34.6671 16.875 30.9375C16.875 27.2079 18.3566 23.631 20.9938 20.9938C23.631 18.3566 27.2079 16.875 30.9375 16.875C34.6671 16.875 38.244 18.3566 40.8812 20.9938C43.5184 23.631 45 27.2079 45 30.9375Z" fill="#353C4B"/>
<path d="M26.5448 33.5925C26.677 35.2688 28.0017 36.5738 30.3782 36.7313V37.9688H31.4329V36.7228C33.8939 36.5513 35.3311 35.235 35.3311 33.3281C35.3311 31.59 34.2342 30.6956 32.2654 30.2344L31.4329 30.0375V26.6625C32.4904 26.7834 33.1598 27.36 33.3201 28.1588H35.1707C35.0386 26.5416 33.652 25.2788 31.4329 25.1409V23.9062H30.3782V25.1719C28.2773 25.3772 26.8486 26.64 26.8486 28.4287C26.8486 30.0094 27.9117 31.0162 29.6807 31.4269L30.3782 31.5984V35.1759C29.2982 35.0128 28.5811 34.4166 28.4207 33.5925H26.5448ZM30.3698 29.7844C29.332 29.5453 28.7695 29.0531 28.7695 28.3162C28.7695 27.4894 29.377 26.8706 30.3782 26.6906V29.7844H30.3698ZM31.5848 31.8825C32.8476 32.175 33.427 32.6475 33.427 33.4828C33.427 34.4362 32.7042 35.0887 31.4329 35.2097V31.8488L31.5848 31.8825Z" fill="#353C4B"/>
<path d="M2.8125 0C2.06658 0 1.35121 0.296316 0.823762 0.823762C0.296316 1.35121 0 2.06658 0 2.8125L0 25.3125C0 26.0584 0.296316 26.7738 0.823762 27.3012C1.35121 27.8287 2.06658 28.125 2.8125 28.125H14.2959C14.4609 27.1556 14.7028 26.2181 15.0216 25.3125H8.4375C8.4375 23.8207 7.84487 22.3899 6.78998 21.335C5.73508 20.2801 4.30434 19.6875 2.8125 19.6875V8.4375C4.30434 8.4375 5.73508 7.84487 6.78998 6.78998C7.84487 5.73508 8.4375 4.30434 8.4375 2.8125H36.5625C36.5625 4.30434 37.1551 5.73508 38.21 6.78998C39.2649 7.84487 40.6957 8.4375 42.1875 8.4375V18.36C43.2562 19.3162 44.2041 20.4075 45 21.6056V2.8125C45 2.06658 44.7037 1.35121 44.1762 0.823762C43.6488 0.296316 42.9334 0 42.1875 0L2.8125 0Z" fill="#353C4B"/>
<path d="M28.1194 14.2959L28.125 14.0625C28.1244 13.0938 27.8737 12.1417 27.3972 11.2984C26.9206 10.4551 26.2343 9.74914 25.4049 9.24891C24.5754 8.74868 23.6308 8.47113 22.6625 8.44314C21.6943 8.41516 20.7352 8.63768 19.8782 9.08917C19.0212 9.54065 18.2953 10.2058 17.7709 11.0202C17.2464 11.8345 16.9411 12.7706 16.8846 13.7376C16.8281 14.7046 17.0222 15.6698 17.4482 16.5397C17.8742 17.4096 18.5177 18.1548 19.3163 18.7031C21.7474 16.3917 24.8122 14.8573 28.1194 14.2959Z" fill="#353C4B"/>
</g>
<defs>
<clipPath id="clip0_459_2735">
<rect width="45" height="45" fill="white"/>
</clipPath>
</defs>
</svg>
