<svg width="45" height="45" viewBox="0 0 45 45" fill="none" xmlns="http://www.w3.org/2000/svg">
<g clip-path="url(#clip0_459_2730)">
<path d="M45 7.03125C45 8.61328 43.7432 10.0723 41.625 11.25C39.0674 12.665 35.2529 13.667 30.876 13.9658C30.5508 13.8076 30.2256 13.6582 29.8828 13.5264C26.4199 12.0762 21.8145 11.25 16.875 11.25C16.1455 11.25 15.4336 11.2676 14.7217 11.3027L14.625 11.25C12.5068 10.0723 11.25 8.61328 11.25 7.03125C11.25 3.14648 18.8086 0 28.125 0C37.4414 0 45 3.14648 45 7.03125ZM14.124 14.1592C15.0205 14.0977 15.9434 14.0625 16.875 14.0625C22.3418 14.0625 27.1934 15.1436 30.2783 16.8223C32.458 18.0088 33.75 19.4854 33.75 21.0938C33.75 21.4453 33.6885 21.7881 33.5654 22.1221C33.1611 23.2822 32.0713 24.3457 30.4893 25.2422C30.4805 25.251 30.4629 25.251 30.4541 25.2598C30.4277 25.2773 30.4014 25.2861 30.375 25.3037C27.2988 27.0088 22.3945 28.1162 16.875 28.1162C11.6367 28.1162 6.95215 27.123 3.84961 25.5586C3.68262 25.4795 3.52441 25.3916 3.36621 25.3037C1.25684 24.1348 0 22.6758 0 21.0938C0 18.0352 4.69336 15.4248 11.25 14.4668C12.1729 14.335 13.1309 14.2295 14.124 14.1592ZM36.5625 21.0938C36.5625 19.1689 35.6309 17.5869 34.4443 16.4004C36.9316 16.0137 39.208 15.3984 41.1416 14.5986C42.5742 14.001 43.9102 13.2627 45 12.3574V15.4688C45 17.165 43.5498 18.7295 41.1504 19.9424C39.8672 20.5928 38.3027 21.1465 36.5449 21.5684C36.5537 21.4102 36.5625 21.2607 36.5625 21.1025V21.0938ZM33.75 29.5312C33.75 31.1133 32.4932 32.5723 30.375 33.75C30.2168 33.8379 30.0586 33.917 29.8916 34.0049C26.7979 35.5693 22.1133 36.5625 16.875 36.5625C11.3555 36.5625 6.45117 35.4551 3.375 33.75C1.25684 32.5723 0 31.1133 0 29.5312V26.4199C1.09863 27.3252 2.42578 28.0635 3.8584 28.6611C7.33008 30.1113 11.9355 30.9375 16.875 30.9375C21.8145 30.9375 26.4199 30.1113 29.8916 28.6611C30.5771 28.3799 31.2363 28.0547 31.8604 27.7031C32.3965 27.4043 32.8975 27.0703 33.3721 26.7188C33.5039 26.6221 33.627 26.5166 33.75 26.4199V27.2197V29.5312ZM36.5625 29.5312V24.4424C38.2324 24.0732 39.7705 23.6074 41.1416 23.0361C42.5742 22.4385 43.9102 21.7002 45 20.7949V23.9062C45 24.8291 44.5605 25.752 43.6904 26.6221C42.2578 28.0547 39.7354 29.2324 36.5449 29.9971C36.5537 29.8477 36.5625 29.6895 36.5625 29.5312ZM16.875 39.375C21.8145 39.375 26.4199 38.5488 29.8916 37.0986C31.3242 36.501 32.6602 35.7627 33.75 34.8574V37.9688C33.75 41.8535 26.1914 45 16.875 45C7.55859 45 0 41.8535 0 37.9688V34.8574C1.09863 35.7627 2.42578 36.501 3.8584 37.0986C7.33008 38.5488 11.9355 39.375 16.875 39.375Z" fill="#353C4B"/>
</g>
<defs>
<clipPath id="clip0_459_2730">
<rect width="45" height="45" fill="white"/>
</clipPath>
</defs>
</svg>
