<svg width="24" height="24" viewBox="0 0 24 24" fill="none" xmlns="http://www.w3.org/2000/svg">
<path fill-rule="evenodd" clip-rule="evenodd" d="M17.9251 0H6.574C3.45273 0 0.898438 2.6991 0.898438 6V18C0.898438 21.2997 3.45273 24 6.574 24H17.9251C21.0464 24 23.6007 21.2997 23.6007 18V6C23.6007 2.6991 21.0464 0 17.9251 0ZM12.2493 16.9999C9.6368 16.9999 7.51953 14.7607 7.51953 12.0001C7.51953 9.23834 9.6368 7.00004 12.2493 7.00004C14.8606 7.00004 16.979 9.23834 16.979 12.0001C16.979 14.7607 14.8606 16.9999 12.2493 16.9999ZM16.9785 5.49992C16.9785 6.32822 17.613 6.99992 18.3974 6.99992C19.1818 6.99992 19.8163 6.32822 19.8163 5.49992C19.8163 4.67162 19.1818 3.99992 18.3974 3.99992C17.613 3.99992 16.9785 4.67162 16.9785 5.49992Z" fill="#353C4B" fill-opacity="0.4"/>
</svg>
