<svg width="26" height="24" viewBox="0 0 26 24" fill="none" xmlns="http://www.w3.org/2000/svg">
<path d="M22.84 5.98121C22.8564 6.24433 22.8564 6.50595 22.8564 6.76757C22.8564 14.7741 17.7446 24 8.4026 24C5.52446 24 2.85063 23.0061 0.600586 21.28C1.00923 21.3357 1.40273 21.3552 1.82777 21.3552C4.20268 21.3552 6.3884 20.3989 8.13522 18.7676C5.90157 18.7119 4.02989 16.9678 3.38414 14.5681C3.69818 14.6237 4.01349 14.6613 4.34394 14.6613C4.79924 14.6613 5.25707 14.5861 5.68211 14.4553C3.3526 13.893 1.60831 11.4557 1.60831 8.51171V8.43654C2.2856 8.8861 3.07135 9.16727 3.90377 9.20486C2.53532 8.11928 1.63858 6.26237 1.63858 4.16188C1.63858 3.03721 1.88957 2.00576 2.32974 1.10663C4.83078 4.77985 8.59052 7.18106 12.8056 7.44418C12.7274 6.99311 12.6795 6.5255 12.6795 6.05638C12.6795 2.71846 14.9446 0 17.7597 0C19.2227 0 20.5433 0.730735 21.4715 1.91254C22.6193 1.64942 23.7191 1.14271 24.6953 0.449568C24.3181 1.85541 23.5147 3.03721 22.4616 3.7875C23.4845 3.65518 24.4758 3.31838 25.3864 2.84927C24.6953 4.04912 23.8313 5.11816 22.84 5.98121Z" fill="#353C4B" fill-opacity="0.4"/>
</svg>
